<svg xmlns="http://www.w3.org/2000/svg" viewBox="0 0 415.21533 70.30492">
  <defs>
    <style>
      .cls-1 {
        fill: #6A3999;
      }

      .cls-2 {
        fill: #40a8df;
      }

      .cls-3 {
        fill: #69b978;
      }

      .cls-4 {
        fill: #4abbbf;
      }

      .cls-5 {
        fill: #2b97a6;
      }
    </style>
  </defs>
  <title>logo puzzle skills v1 farbig</title>
  <g id="Ebene_2" data-name="Ebene 2">
    <g id="white">
      <g id="Neues_Symbol_1" data-name="Neues Symbol 1">
        <g>
          <path class="cls-1" d="M11.58691,52.53148V69.58714H0V19.82152H20.2002q8.852,0,14.04785,4.5293a14.9611,14.9611,0,0,1,5.19531,11.84277,14.894,14.894,0,0,1-5.19531,11.84277q-5.1958,4.4956-14.04785,4.49512Zm0-8.88672H20.2002a7.52765,7.52765,0,0,0,5.72509-2.06738A7.40264,7.40264,0,0,0,27.89062,36.262a7.678,7.678,0,0,0-1.96533-5.43457,7.42877,7.42877,0,0,0-5.72509-2.11914H11.58691Z"/>
          <path class="cls-1" d="M86.78223,19.82152V52.42894q0,8.51075-5.65674,13.19336-5.65723,4.68311-14.8169,4.68262-9.26293,0-14.93652-4.68262Q45.698,60.94067,45.69824,52.42894V19.82152H57.28516V52.42894q0,4.58057,2.35839,6.78516a9.395,9.395,0,0,0,6.665,2.2041,9.19183,9.19183,0,0,0,6.57959-2.1875q2.30713-2.187,2.30713-6.80176V19.82152Z"/>
          <path class="cls-1" d="M106.98242,60.70043h22.66113v8.88671H92.76367V64.39183l22.251-35.68359H92.66113V19.82152h36.67481v4.99023Z"/>
          <path class="cls-1" d="M147.86133,60.70043H170.523v8.88671H133.64258V64.39183L155.894,28.70824H133.54V19.82152h36.67432v4.99023Z"/>
          <path class="cls-1" d="M187.71533,60.70043H209.146v8.88671H176.12842V19.82152h11.58691Z"/>
          <path class="cls-1" d="M245.13623,48.2932h-19.5166V60.70043h23.00293v8.88671H214.03271V19.82152h34.65821v8.88672H225.61963V39.40648h19.5166Z"/>
          <path class="cls-2" d="M272.51514,59.19652a3.01471,3.01471,0,0,0-1.55469-2.44336,16.77757,16.77757,0,0,0-5.65723-1.93164q-6.46-1.26416-9.74121-3.93067a8.877,8.877,0,0,1-3.28125-7.28027,10.40256,10.40256,0,0,1,4.10156-8.28906q4.10157-3.3999,11.1084-3.40039,7.38282,0,11.75782,3.29883a9.6984,9.6984,0,0,1,4.16992,8.52734l-.06836.20508H272.13916a4.54247,4.54247,0,0,0-1.11035-3.31543,4.85061,4.85061,0,0,0-3.57227-1.12793,4.69673,4.69673,0,0,0-3.042.99121,3.108,3.108,0,0,0-1.23047,2.5293,3.00747,3.00747,0,0,0,1.41895,2.49511q1.4165,1.0254,5.72461,1.84571,6.76758,1.333,10.03125,3.98242a9.11224,9.11224,0,0,1,3.26465,7.502,9.7964,9.7964,0,0,1-4.42676,8.22071q-4.42675,3.22851-11.70606,3.22949-7.5542,0-11.94629-3.82813-4.39159-3.82764-4.18652-8.54492l.06836-.20508h10.459a4.634,4.634,0,0,0,1.58887,3.794,6.99436,6.99436,0,0,0,4.32422,1.16211,5.76975,5.76975,0,0,0,3.52051-.90625A3.04289,3.04289,0,0,0,272.51514,59.19652Z"/>
          <path class="cls-2" d="M302.55908,54.88988h-1.94824V69.58714H289.05811V16.26683h11.55273V46.17406h1.53809l7.8955-13.56934H323.272L311.7876,49.31859l13.2959,20.26855H311.92432Z"/>
          <path class="cls-3" d="M339.40381,69.58714H327.81689V32.60472h11.58692Z"/>
          <path class="cls-4" d="M358.57959,69.58714H346.99268V16.26683h11.58691Z"/>
          <path class="cls-5" d="M377.75342,69.58714H366.1665V0h11.58692Z"/>
          <path class="cls-2" d="M404.10693,59.19652a3.01469,3.01469,0,0,0-1.55468-2.44336,16.77765,16.77765,0,0,0-5.65723-1.93164q-6.46-1.26416-9.74121-3.93067a8.877,8.877,0,0,1-3.28125-7.28027,10.40256,10.40256,0,0,1,4.10156-8.28906q4.10157-3.3999,11.1084-3.40039,7.38281,0,11.75781,3.29883a9.69838,9.69838,0,0,1,4.16992,8.52734l-.06836.20508H403.731a4.54251,4.54251,0,0,0-1.11035-3.31543,4.85064,4.85064,0,0,0-3.57227-1.12793,4.69671,4.69671,0,0,0-3.042.99121,3.108,3.108,0,0,0-1.23047,2.5293,3.00748,3.00748,0,0,0,1.41894,2.49511q1.41651,1.0254,5.72461,1.84571,6.76758,1.333,10.03125,3.98242a9.11224,9.11224,0,0,1,3.26465,7.502,9.79637,9.79637,0,0,1-4.42676,8.22071q-4.42676,3.22851-11.70605,3.22949-7.55419,0-11.94629-3.82813-4.39159-3.82764-4.18652-8.54492l.06836-.20508h10.459a4.634,4.634,0,0,0,1.58887,3.794,6.99436,6.99436,0,0,0,4.32422,1.16211,5.76974,5.76974,0,0,0,3.5205-.90625A3.04287,3.04287,0,0,0,404.10693,59.19652Z"/>
        </g>
      </g>
    </g>
  </g>
</svg>
