<svg width="214" height="32" fill="none" xmlns="http://www.w3.org/2000/svg">
    <path d="M107.914 20.016c0-.443-.156-.782-.469-1.016-.312-.24-.875-.49-1.687-.75-.813-.266-1.456-.526-1.93-.781-1.292-.698-1.937-1.638-1.937-2.82 0-.615.171-1.162.515-1.641.349-.485.847-.862 1.492-1.133.651-.27 1.381-.406 2.188-.406.812 0 1.536.148 2.172.445.635.292 1.127.706 1.476 1.242.355.537.532 1.146.532 1.828h-2.344c0-.52-.164-.924-.492-1.21-.328-.292-.789-.438-1.383-.438-.573 0-1.018.122-1.336.367-.318.24-.477.557-.477.953 0 .37.185.68.555.93.375.25.925.484 1.649.703 1.333.401 2.304.898 2.914 1.492.609.594.914 1.334.914 2.219 0 .984-.373 1.758-1.118 2.32-.744.558-1.747.836-3.007.836-.875 0-1.672-.159-2.391-.476-.719-.323-1.268-.763-1.648-1.32-.375-.558-.563-1.204-.563-1.938h2.352c0 1.255.75 1.883 2.25 1.883.557 0 .992-.112 1.304-.336.313-.23.469-.547.469-.953zm7.508-1.578l-1.219 1.312V23h-2.344V11.625h2.344v5.156l1.031-1.414 2.899-3.742h2.883l-4.039 5.055 4.156 6.32h-2.789l-2.922-4.563zM124.508 23h-2.344V11.625h2.344V23zm4.523-1.883h4.977V23h-7.32V11.625h2.343v9.492zm8.672 0h4.977V23h-7.321V11.625h2.344v9.492zm12.227-1.101c0-.443-.157-.782-.469-1.016-.313-.24-.875-.49-1.688-.75-.812-.266-1.455-.526-1.929-.781-1.292-.698-1.938-1.638-1.938-2.82 0-.615.172-1.162.516-1.641.349-.485.846-.862 1.492-1.133.651-.27 1.38-.406 2.188-.406.812 0 1.536.148 2.171.445.636.292 1.128.706 1.477 1.242.354.537.531 1.146.531 1.828h-2.343c0-.52-.165-.924-.493-1.21-.328-.292-.789-.438-1.383-.438-.572 0-1.018.122-1.335.367-.318.24-.477.557-.477.953 0 .37.185.68.555.93.375.25.924.484 1.648.703 1.333.401 2.305.898 2.914 1.492.61.594.914 1.334.914 2.219 0 .984-.372 1.758-1.117 2.32-.745.558-1.747.836-3.008.836-.875 0-1.672-.159-2.39-.476-.719-.323-1.269-.763-1.649-1.32-.375-.558-.562-1.204-.562-1.938h2.351c0 1.255.75 1.883 2.25 1.883.558 0 .992-.112 1.305-.336.312-.23.469-.547.469-.953z"
          fill="#69B978"></path>
    <path d="M27.45 4.686c-6.28-6.248-16.461-6.248-22.74 0-6.28 6.249-6.28 16.38 0 22.628 6.279 6.248 16.46 6.248 22.74 0 3.015-3 4.71-7.07 4.71-11.314a15.96 15.96 0 00-4.71-11.314zm-1.24 5.527C25.686 11.77 24 16.442 24 16.442c-.564 1.523-3.863 1.51-8.342 1.523 0 0 2.894-.407 3.73-2.015a38.073 38.073 0 001.822-4.864c-4.455 0-4.853 1.553-4.853 1.553s-2.814 7.836-3.82 10.727c-7.804 0-6.557-3.835-6.557-3.835L9.884 8.635h7.905l-.527 1.57s.643-1.57 5.002-1.57c.002 0 4.471.019 3.946 1.578zM41.45 19.15v4.023h-2.746V11.439h4.787a4.907 4.907 0 013.329 1.067 3.519 3.519 0 011.231 2.8 3.505 3.505 0 01-1.231 2.793 4.938 4.938 0 01-3.329 1.059l-2.042-.008zm0-2.095h2.041c.501.035.994-.142 1.356-.488.316-.34.484-.79.465-1.253a1.802 1.802 0 00-.465-1.281 1.762 1.762 0 00-1.356-.5H41.45v3.522zM58.88 11.437v7.689a3.805 3.805 0 01-1.34 3.112 5.347 5.347 0 01-3.51 1.103 5.402 5.402 0 01-3.54-1.103 3.8 3.8 0 01-1.34-3.112v-7.69h2.747v7.69a2.086 2.086 0 00.559 1.6c.439.37 1.005.556 1.58.52a2.185 2.185 0 001.558-.516 2.111 2.111 0 00.547-1.6v-7.693h2.74zM63.33 21.077h5.37v2.096h-8.74v-1.226l5.273-8.414h-5.297v-2.096h8.691v1.177l-5.298 8.463zM72.927 21.077h5.37v2.096h-8.74v-1.226l5.274-8.414h-5.297v-2.096h8.69v1.177l-5.297 8.463zM82.07 21.077h5.079v2.096h-7.823V11.439h2.747l-.003 9.638zM95.471 18.151H90.85v2.926h5.45v2.096h-8.2V11.439h8.213v2.096H90.85v2.523h4.625l-.004 2.093z"
          fill="#fff"></path>
</svg>