<svg width="100" height="27" fill="none" xmlns="http://www.w3.org/2000/svg">
    <path d="M31.8103 3.36684V5.56785H31.0679V0.080553H33.167C33.6631 0.0497411 34.1519 0.211771 34.5314 0.532806C34.8431 0.851952 35.0176 1.28039 35.0176 1.72653C35.0176 2.17267 34.8431 2.6011 34.5314 2.92025C34.1503 3.23784 33.6621 3.39762 33.167 3.36683L31.8103 3.36684ZM31.8103 2.78274H33.167C33.3131 2.7942 33.46 2.77534 33.5984 2.72732C33.7368 2.6793 33.8638 2.60317 33.9714 2.5037C34.0789 2.40424 34.1648 2.2836 34.2235 2.14937C34.2822 2.01514 34.3125 1.87021 34.3125 1.7237C34.3125 1.57719 34.2822 1.43227 34.2235 1.29803C34.1648 1.1638 34.0789 1.04316 33.9714 0.943702C33.8638 0.844241 33.7368 0.768107 33.5984 0.720087C33.46 0.672067 33.3131 0.653199 33.167 0.664667H31.8103V2.78274Z"
          fill="#1E5A96"/>
    <path d="M40.1562 3.31411C40.1766 3.93109 39.9524 4.53114 39.5326 4.9837C39.3254 5.20301 39.0739 5.37561 38.7948 5.48998C38.5156 5.60435 38.2153 5.65787 37.9139 5.64696C37.6209 5.65704 37.3292 5.6029 37.0593 5.48832C36.7895 5.37374 36.5479 5.20151 36.3517 4.9837C35.9446 4.52486 35.7293 3.92714 35.7504 3.31411V2.338C35.7302 1.7251 35.9453 1.1277 36.3517 0.66841C36.5474 0.449643 36.7887 0.276515 37.0586 0.161255C37.3286 0.0459947 37.6205 -0.00858513 37.9139 0.00137044C38.2155 -0.00948422 38.516 0.0442433 38.7951 0.158958C39.0743 0.273674 39.3257 0.446726 39.5326 0.66652C39.9522 1.11994 40.1763 1.72049 40.1562 2.33801V3.31411ZM39.4138 2.33045C39.4323 1.88269 39.2876 1.44346 39.0067 1.09431C38.8735 0.935818 38.7057 0.809932 38.5163 0.7263C38.3268 0.642667 38.1208 0.603506 37.9139 0.611819C37.7156 0.604903 37.5185 0.645011 37.3387 0.72887C37.1589 0.812729 37.0014 0.937957 36.8793 1.09431C36.6108 1.44897 36.4742 1.88602 36.4929 2.33045V3.31411C36.4734 3.76092 36.61 4.20058 36.8793 4.55769C37.0014 4.71406 37.1588 4.8393 37.3386 4.92316C37.5185 5.00702 37.7156 5.04712 37.9139 5.04018C38.1209 5.04897 38.3273 5.01024 38.517 4.92695C38.7068 4.84366 38.875 4.71803 39.0087 4.55969C39.2897 4.20703 39.4336 3.76459 39.4138 3.31411V2.33045Z"
          fill="#1E5A96"/>
    <path d="M42.2028 3.66829L42.3046 4.35422L42.3273 4.358L42.4743 3.66829L43.4804 0.0805054H44.1363L45.15 3.66829L45.3007 4.37312H45.3234L45.4328 3.66829L46.2506 0.0805054H46.993L45.67 5.56781H45.0068L43.9253 1.76134L43.8272 1.26762H43.8046L43.7103 1.76134L42.6099 5.56781H41.9466L40.6274 0.0805158H41.3663L42.2028 3.66829Z"
          fill="#1E5A96"/>
    <path d="M51.0834 3.02382H48.5696V4.98369H51.4678V5.56781H47.8271V0.0805054H51.4263V0.664609H48.5696V2.43971H51.0834V3.02382Z"
          fill="#1E5A96"/>
    <path d="M53.0163 3.18969V5.56781H52.2739V0.0841757H54.2601C54.7514 0.0506775 55.2387 0.192229 55.6356 0.483732C55.7976 0.628477 55.9246 0.808217 56.0069 1.00933C56.0892 1.21045 56.1246 1.42765 56.1105 1.64449C56.1164 1.90658 56.0393 2.16383 55.8902 2.37945C55.726 2.60139 55.5036 2.77354 55.2476 2.87684C55.5157 2.94997 55.7473 3.11984 55.8975 3.35366C56.0368 3.60246 56.1053 3.88469 56.0954 4.16967V4.68596C56.0934 4.84109 56.1125 4.99577 56.1521 5.14577C56.1845 5.27267 56.2525 5.38768 56.348 5.47729V5.56779H55.5829C55.4776 5.46835 55.4108 5.33484 55.3945 5.19091C55.3665 5.02152 55.3526 4.8501 55.353 4.6784V4.17701C55.3589 4.04643 55.339 3.91596 55.2944 3.79309C55.2498 3.67023 55.1814 3.55739 55.093 3.46105C55.0023 3.36954 54.8933 3.2981 54.7732 3.25135C54.6531 3.20461 54.5245 3.1836 54.3958 3.18968L53.0163 3.18969ZM53.0163 2.60558H54.1848C54.5055 2.63406 54.8261 2.54956 55.0911 2.36667C55.1883 2.27346 55.2636 2.15981 55.3115 2.03393C55.3594 1.90805 55.3787 1.77309 55.3681 1.63882C55.3762 1.50715 55.3563 1.37526 55.3099 1.25178C55.2635 1.1283 55.1915 1.01603 55.0986 0.922307C54.8616 0.73404 54.5618 0.64323 54.2601 0.668387H53.0163V2.60558Z"
          fill="#1E5A96"/>
    <path d="M60.4906 3.02382H57.9768V4.98369H60.8751V5.56781H57.2344V0.0805054H60.8335V0.664609H57.9768V2.43971H60.4906L60.4906 3.02382Z"
          fill="#1E5A96"/>
    <path d="M61.6807 5.56784V0.0805367H63.3654C63.682 0.0620892 63.999 0.110682 64.2956 0.223134C64.5921 0.335586 64.8616 0.509368 65.0864 0.733116C65.3113 0.956865 65.4863 1.22554 65.6002 1.52158C65.714 1.81762 65.7641 2.13436 65.7471 2.45108V3.20106C65.7644 3.51769 65.7145 3.83439 65.6007 4.13037C65.4869 4.42636 65.3118 4.69492 65.0869 4.91844C64.862 5.14195 64.5923 5.31537 64.2956 5.42729C63.9989 5.5392 63.6819 5.5871 63.3654 5.56782L61.6807 5.56784ZM62.4231 0.664651V4.98373H63.3654C63.5901 4.99468 63.8144 4.95541 64.022 4.86879C64.2296 4.78218 64.4153 4.65039 64.5656 4.483C64.867 4.12468 65.0236 3.66668 65.0047 3.19885V2.44198C65.0228 1.97659 64.8662 1.52127 64.5656 1.16549C64.4153 0.998066 64.2296 0.866243 64.022 0.779608C63.8144 0.692972 63.5901 0.6537 63.3654 0.664651H62.4231Z"
          fill="#1E5A96"/>
    <path d="M68.6831 5.56782V0.0805219H70.4732C70.9503 0.0527096 71.4233 0.183199 71.8186 0.451729C71.9834 0.584431 72.1137 0.754997 72.1984 0.948896C72.283 1.14279 72.3196 1.35428 72.3049 1.56535C72.3067 1.80409 72.2239 2.03577 72.0712 2.21927C71.9096 2.41557 71.6971 2.56354 71.4569 2.64696C71.7693 2.70528 72.0484 2.87883 72.2389 3.13323C72.4292 3.38881 72.5293 3.70033 72.5235 4.01894C72.537 4.23555 72.4999 4.45234 72.4152 4.65216C72.3305 4.85198 72.2005 5.02935 72.0354 5.17025C71.6537 5.45321 71.1851 5.59384 70.7107 5.56781L68.6831 5.56782ZM69.4255 2.41339H70.6277C70.8732 2.42411 71.1137 2.34279 71.3023 2.18538C71.3867 2.09881 71.4531 1.99643 71.4977 1.88412C71.5423 1.7718 71.5643 1.65178 71.5624 1.53094C71.5605 1.4101 71.5347 1.29083 71.4865 1.17999C71.4383 1.06915 71.3687 0.968933 71.2817 0.885093C71.0444 0.723374 70.7598 0.645764 70.4732 0.664636H69.4255V2.41339ZM69.4255 2.9975V4.98372H70.7107C70.9951 5.001 71.2759 4.91202 71.4985 4.73402C71.5947 4.64412 71.67 4.53407 71.7188 4.41173C71.7677 4.28939 71.7889 4.15779 71.7811 4.02629C71.7968 3.7545 71.7131 3.48625 71.5456 3.27165C71.4525 3.17508 71.3391 3.10039 71.2137 3.05298C71.0882 3.00557 70.9538 2.98662 70.8201 2.9975H69.4255Z"
          fill="#1E5A96"/>
    <path d="M75.0575 2.86939L76.4896 0.0805054H77.3374L75.4117 3.63828V5.5678H74.6731V3.58914L72.7773 0.0805123H73.6254L75.0575 2.86939Z"
          fill="#1E5A96"/>
    <path d="M3.78099 22.9019C1.97572 21.0967 0.746266 18.7968 0.248119 16.2929C-0.250028 13.7891 0.00550068 11.1937 0.982393 8.83506C1.95929 6.47642 3.61367 4.46043 5.73632 3.04202C7.85898 1.62362 10.3546 0.866519 12.9075 0.866455C15.4605 0.866391 17.9561 1.62337 20.0788 3.04166C22.2015 4.45996 23.856 6.47587 24.833 8.83447C25.81 11.1931 26.0657 13.7884 25.5677 16.2923C25.0697 18.7962 23.8403 21.0962 22.0351 22.9014C20.8366 24.1 19.4137 25.0509 17.8477 25.6996C16.2817 26.3483 14.6032 26.6822 12.9082 26.6823C11.2131 26.6823 9.53464 26.3485 7.96859 25.6998C6.40255 25.0512 4.9796 24.1004 3.78099 22.9019Z"
          fill="#1E5A96"/>
    <path d="M33.2729 16.3156V19.56H31.0688V10.0928H34.9118C36.0342 10.0928 36.9248 10.38 37.5837 10.9544C37.8955 11.2411 38.1443 11.5894 38.3146 11.9772C38.4848 12.3651 38.5727 12.7841 38.5727 13.2076C38.5727 13.6312 38.4848 14.0502 38.3146 14.438C38.1443 14.8259 37.8955 15.1742 37.5837 15.4609C36.9252 16.0306 36.0345 16.3155 34.9118 16.3156H33.2729ZM33.2729 14.6249H34.9118C35.1107 14.6388 35.3103 14.6111 35.4978 14.5434C35.6853 14.4757 35.8565 14.3695 36.0006 14.2318C36.1263 14.096 36.224 13.9368 36.2881 13.7633C36.3522 13.5898 36.3816 13.4053 36.3744 13.2205C36.3893 12.8403 36.2552 12.4694 36.0006 12.1866C35.8581 12.046 35.6873 11.9374 35.4996 11.8679C35.3119 11.7984 35.1115 11.7696 34.9118 11.7835H33.2729V14.6249Z"
          fill="#1E5A96"/>
    <path d="M47.2665 10.0928V16.296C47.2665 17.3757 46.9078 18.2125 46.1904 18.8063C45.4731 19.3999 44.5336 19.6967 43.3719 19.6965C42.1973 19.6965 41.2501 19.3998 40.5304 18.8063C39.8109 18.2122 39.451 17.3754 39.4507 16.296V10.0928H41.6552V16.296C41.6552 16.8772 41.8048 17.3075 42.1039 17.587C42.4565 17.8853 42.911 18.0356 43.3719 18.0063C43.8274 18.0362 44.2765 17.8869 44.6233 17.5901C44.9159 17.3126 45.0622 16.8812 45.0622 16.296V10.0928H47.2665Z"
          fill="#1E5A96"/>
    <path d="M50.8374 17.8698H55.1487V19.56H48.1326V18.5719L52.3656 11.7835H48.1133V10.0928H55.0904V11.0422L50.8374 17.8698Z"
          fill="#1E5A96"/>
    <path d="M58.5413 17.8698H62.8523V19.56H55.8367V18.5719L60.0696 11.7835H55.8169V10.0928H62.794V11.0422L58.5413 17.8698Z"
          fill="#1E5A96"/>
    <path d="M65.8813 17.8698H69.9582V19.56H63.6768V10.0928H65.8813V17.8698Z" fill="#1E5A96"/>
    <path d="M76.6387 15.5094H72.9258V17.8698H77.3017V19.56H70.7217V10.0928H77.3146V11.7835H72.9258V13.8187H76.6387V15.5094Z"
          fill="#1E5A96"/>
    <path d="M83.9529 19.56H81.7617V10.0928H83.9529V19.56Z" fill="#1E5A96"/>
    <path d="M91.9525 11.7835H89.4556V19.56H87.2511V11.7835H84.7739V10.0928H91.9525V11.7835Z" fill="#1E5A96"/>
    <path d="M99.9745 16.2379L99.9874 16.2766C99.944 17.3865 99.6157 18.2341 99.0024 18.8193C98.3883 19.4045 97.4985 19.697 96.3329 19.6967C95.1627 19.6967 94.2113 19.3369 93.4785 18.6174C93.1119 18.2514 92.825 17.8135 92.6359 17.3312C92.4467 16.8489 92.3594 16.3327 92.3795 15.815V13.8384C92.3592 13.3248 92.4423 12.8124 92.6239 12.3315C92.8054 11.8507 93.0818 11.4112 93.4365 11.0392C93.7943 10.6782 94.2233 10.3955 94.6962 10.2091C95.1691 10.0227 95.6756 9.93664 96.1835 9.95638C97.3797 9.95638 98.2942 10.2577 98.9268 10.8602C99.5602 11.463 99.918 12.3192 100 13.4287L99.9874 13.4678H97.848C97.8175 12.8522 97.6798 12.3948 97.4349 12.0958C97.1901 11.7965 96.773 11.6469 96.1835 11.6471C95.9525 11.6398 95.7233 11.6911 95.5174 11.7963C95.3116 11.9015 95.1357 12.0572 95.0062 12.2487C94.7013 12.7163 94.5512 13.2679 94.5773 13.8255V15.815C94.5505 16.3815 94.7155 16.9405 95.0456 17.4017C95.1956 17.5987 95.391 17.7565 95.6151 17.8618C95.8393 17.9671 96.0855 18.0167 96.3329 18.0064C96.8619 18.0064 97.2369 17.8655 97.458 17.5835C97.6788 17.302 97.8043 16.8535 97.8346 16.2379H99.9745Z"
          fill="#1E5A96"/>
    <path d="M19.2661 14.1305C18.8134 15.3588 16.1653 15.3481 12.5698 15.3588C12.5698 15.3588 14.8931 15.0306 15.5643 13.7334C16.236 12.4373 17.0269 9.80984 17.0269 9.80984C13.4499 9.80963 13.131 11.0628 13.131 11.0628C13.131 11.0628 10.8702 17.3843 10.064 19.7167C3.79994 19.7167 4.8009 16.6226 4.8009 16.6226L7.93438 7.83276H14.2825L13.8585 9.09857C13.8585 9.09857 14.3757 7.83276 17.8745 7.83276C17.8745 7.83276 21.4613 7.84834 21.04 9.10524C20.6193 10.3615 19.2661 14.1305 19.2661 14.1305"
          fill="white"></path></svg>