<svg xmlns="http://www.w3.org/2000/svg" fill="none" viewBox="0 0 16 16" id="Recycle-Bin-1--Streamline-Core" height="16"
     width="16">
    <desc>Recycle Bin 1 Streamline Icon: https://streamlinehq.com</desc>
    <g id="recycle-bin-1--remove-delete-empty-bin-trash-garbage">
        <path id="Union" fill="#ec5c5d" fill-rule="evenodd"
              d="M6.285714285714286 1.7142857142857142c-0.1577942857142857 0 -0.2857142857142857 0.12792 -0.2857142857142857 0.2857142857142857v1.1428571428571428h4v-1.1428571428571428c0 -0.1577942857142857 -0.12792 -0.2857142857142857 -0.2857142857142857 -0.2857142857142857h-3.4285714285714284ZM1.4285714285714284 3.142857142857143h2.8571428571428568v-1.1428571428571428C4.285714285714286 0.8954308571428571 5.181142857142857 0 6.285714285714286 0h3.4285714285714284c1.1045714285714285 0 2 0.8954308571428571 2 2v1.1428571428571428h2.8571428571428568c0.47337142857142855 0 0.8571428571428571 0.38375999999999993 0.8571428571428571 0.8571428571428571s-0.38377142857142854 0.8571428571428571 -0.8571428571428571 0.8571428571428571h-0.40788571428571424l-1.5984 10.65622857142857c-0.04194285714285714 0.2796571428571428 -0.28228571428571425 0.4866285714285714 -0.5651428571428571 0.4866285714285714h-8c-0.28284571428571426 0 -0.5231428571428571 -0.20697142857142858 -0.5650971428571429 -0.4866285714285714L1.8364685714285713 4.857142857142857H1.4285714285714284C0.955184 4.857142857142857 0.5714285714285714 4.473382857142857 0.5714285714285714 4s0.3837554285714285 -0.8571428571428571 0.8571428571428571 -0.8571428571428571Z"
              clip-rule="evenodd" stroke-width="1.1429"></path>
    </g>
</svg>