<?xml version="1.0" encoding="UTF-8"?>
<svg width="127px" height="18px" viewBox="0 0 127 18" version="1.1" xmlns="http://www.w3.org/2000/svg" xmlns:xlink="http://www.w3.org/1999/xlink">
    <!-- Generator: Sketch 52.4 (67378) - http://www.bohemiancoding.com/sketch -->
    <title>a1</title>
    <desc>Created with Sketch.</desc>
    <g id="PuzzleCV-v3" stroke="none" stroke-width="1" fill="none" fill-rule="evenodd">
        <g id="Language-Levels" transform="translate(-554.000000, -440.000000)">
            <g id="a1" transform="translate(554.000000, 440.000000)">
                <rect id="Rectangle" fill="#278CC7" x="0" y="10.8" width="19.1698113" height="7.2"></rect>
                <rect id="Rectangle" fill="#EBEBEB" x="21.5660377" y="10.8" width="19.1698113" height="7.2"></rect>
                <rect id="Rectangle" fill="#EBEBEB" x="43.1320755" y="10.8" width="19.1698113" height="7.2"></rect>
                <rect id="Rectangle" fill="#EBEBEB" x="64.6981132" y="10.8" width="19.1698113" height="7.2"></rect>
                <rect id="Rectangle" fill="#EBEBEB" x="86.2641509" y="10.8" width="19.1698113" height="7.2"></rect>
                <rect id="Rectangle" fill="#EBEBEB" x="107.830189" y="10.8" width="19.1698113" height="7.2"></rect>
                <g transform="translate(3.594340, 0.000000)" fill="#999999">
                    <path d="M5.14229253,6.45703125 L1.93640367,6.45703125 L1.17588259,8.65429688 L0,8.65429688 L3.07133513,0.123046875 L4.06001253,0.123046875 L7.06699587,8.65429688 L5.89111328,8.65429688 L5.14229253,6.45703125 Z M2.26986291,5.49023438 L4.81468345,5.49023438 L3.57444907,1.828125 L3.5393481,1.828125 L2.26986291,5.49023438 Z" id="Combined-Shape"></path>
                    <polygon id="Path" points="11.4780181 8.65429688 10.319686 8.65429688 10.319686 1.18945312 8.46518463 1.20703125 8.46518463 0.31640625 11.4780181 0"></polygon>
                </g>
            </g>
        </g>
    </g>
</svg>