<?xml version="1.0" encoding="UTF-8"?>
<svg width="106px" height="15px" viewBox="0 0 106 15" version="1.1" xmlns="http://www.w3.org/2000/svg" xmlns:xlink="http://www.w3.org/1999/xlink">
    <!-- Generator: Sketch 52.4 (67378) - http://www.bohemiancoding.com/sketch -->
    <title>a2</title>
    <desc>Created with Sketch.</desc>
    <g id="PuzzleCV-v3" stroke="none" stroke-width="1" fill="none" fill-rule="evenodd">
        <g id="Artboard" transform="translate(-401.000000, -296.000000)">
            <g id="a2" transform="translate(401.000000, 296.000000)">
                <rect id="Rectangle" fill="#278CC7" x="0" y="9" width="16" height="6"></rect>
                <rect id="Rectangle" fill="#43A8DD" x="18" y="9" width="16" height="6"></rect>
                <rect id="Rectangle" fill="#EBEBEB" x="36" y="9" width="16" height="6"></rect>
                <rect id="Rectangle" fill="#EBEBEB" x="54" y="9" width="16" height="6"></rect>
                <rect id="Rectangle" fill="#EBEBEB" x="72" y="9" width="16" height="6"></rect>
                <rect id="Rectangle" fill="#EBEBEB" x="90" y="9" width="16" height="6"></rect>
                <g transform="translate(20.000000, 0.000000)" fill="#999999">
                    <path d="M4.29199219,5.38085938 L1.61621094,5.38085938 L0.981445312,7.21191406 L0,7.21191406 L2.56347656,0.102539062 L3.38867188,0.102539062 L5.8984375,7.21191406 L4.91699219,7.21191406 L4.29199219,5.38085938 Z M1.89453125,4.57519531 L4.01855469,4.57519531 L2.98339844,1.5234375 L2.95410156,1.5234375 L1.89453125,4.57519531 Z" id="Combined-Shape"></path>
                    <path d="M11.2597656,7.21191406 L6.84570312,7.21191406 L6.84570312,6.55273438 L9.07714844,3.89160156 C9.47428584,3.40982832 9.74365164,3.02653137 9.88525391,2.74169922 C10.0268562,2.45686707 10.0976562,2.1695978 10.0976562,1.87988281 C10.0976562,1.55110513 10.0016286,1.28173933 9.80957031,1.07177734 C9.61751206,0.861815356 9.35221523,0.756835938 9.01367187,0.756835938 C8.5937479,0.756835938 8.27392688,0.885415381 8.05419922,1.14257812 C7.83447156,1.39974087 7.72460937,1.72037568 7.72460937,2.10449219 L6.796875,2.10449219 L6.78710937,2.07519531 C6.77083325,1.49576533 6.96451621,1.00504758 7.36816406,0.603027344 C7.77181191,0.201007104 8.32030903,0 9.01367187,0 C9.64844067,0 10.1481102,0.175779492 10.5126953,0.52734375 C10.8772805,0.878908008 11.0595703,1.33300503 11.0595703,1.88964844 C11.0595703,2.26399927 10.9562185,2.63020654 10.7495117,2.98828125 C10.542805,3.34635596 10.2278667,3.79557021 9.8046875,4.3359375 L8.01269531,6.43554688 L8.02246094,6.45996094 L11.2597656,6.45996094 L11.2597656,7.21191406 Z" id="Path"></path>
                </g>
            </g>
        </g>
    </g>
</svg>