<?xml version="1.0" encoding="UTF-8"?>
<svg width="106px" height="15px" viewBox="0 0 106 15" version="1.1" xmlns="http://www.w3.org/2000/svg" xmlns:xlink="http://www.w3.org/1999/xlink">
    <!-- Generator: Sketch 52.4 (67378) - http://www.bohemiancoding.com/sketch -->
    <title>b1</title>
    <desc>Created with Sketch.</desc>
    <g id="PuzzleCV-v3" stroke="none" stroke-width="1" fill="none" fill-rule="evenodd">
        <g id="Artboard" transform="translate(-401.000000, -256.000000)">
            <g id="b1" transform="translate(401.000000, 256.000000)">
                <rect id="Rectangle" fill="#278CC7" x="0" y="9" width="16" height="6"></rect>
                <rect id="Rectangle" fill="#43A8DD" x="18" y="9" width="16" height="6"></rect>
                <rect id="Rectangle" fill="#8ECBEB" x="36" y="9" width="16" height="6"></rect>
                <rect id="Rectangle" fill="#EBEBEB" x="54" y="9" width="16" height="6"></rect>
                <rect id="Rectangle" fill="#EBEBEB" x="72" y="9" width="16" height="6"></rect>
                <rect id="Rectangle" fill="#EBEBEB" x="90" y="9" width="16" height="6"></rect>
                <g transform="translate(40.000000, 0.000000)" fill="#999999">
                    <path d="M0,7.21191406 L0,0.102539062 L2.31933594,0.102539062 C3.06152715,0.102539062 3.64257603,0.26285647 4.0625,0.583496094 C4.48242397,0.904135718 4.69238281,1.38508794 4.69238281,2.02636719 C4.69238281,2.3323583 4.59798271,2.60660686 4.40917969,2.84912109 C4.22037666,3.09163533 3.96972813,3.27636655 3.65722656,3.40332031 C4.12272368,3.4684248 4.49137234,3.6702457 4.76318359,4.00878906 C5.03499485,4.34733242 5.17089844,4.74609146 5.17089844,5.20507812 C5.17089844,5.85612305 4.95931201,6.35335115 4.53613281,6.69677734 C4.11295361,7.04020354 3.54004268,7.21191406 2.81738281,7.21191406 L0,7.21191406 Z M0.961914062,3.87695312 L0.961914062,6.45996094 L2.81738281,6.45996094 C3.25683813,6.45996094 3.5978178,6.35172634 3.84033203,6.13525391 C4.08284626,5.91878147 4.20410156,5.61198115 4.20410156,5.21484375 C4.20410156,4.82096157 4.08040488,4.50358193 3.83300781,4.26269531 C3.58561074,4.02180869 3.25195522,3.89322925 2.83203125,3.87695312 L0.961914062,3.87695312 Z M0.961914062,3.125 L2.51953125,3.125 C2.87760596,3.125 3.16894419,3.02653093 3.39355469,2.82958984 C3.61816519,2.63264875 3.73046875,2.3584002 3.73046875,2.00683594 C3.73046875,1.62271943 3.60921345,1.33545017 3.36669922,1.14501953 C3.12418499,0.954588892 2.77506738,0.859375 2.31933594,0.859375 L0.961914062,0.859375 L0.961914062,3.125 Z" id="Combined-Shape"></path>
                    <polygon id="Path" points="8.99414062 7.21191406 8.02734375 7.21191406 8.02734375 0.991210938 6.47949219 1.00585938 6.47949219 0.263671875 8.99414062 0"></polygon>
                </g>
            </g>
        </g>
    </g>
</svg>