<?xml version="1.0" encoding="UTF-8"?>
<svg width="106px" height="15px" viewBox="0 0 106 15" version="1.1" xmlns="http://www.w3.org/2000/svg" xmlns:xlink="http://www.w3.org/1999/xlink">
    <!-- Generator: Sketch 52.4 (67378) - http://www.bohemiancoding.com/sketch -->
    <title>b2</title>
    <desc>Created with Sketch.</desc>
    <g id="PuzzleCV-v3" stroke="none" stroke-width="1" fill="none" fill-rule="evenodd">
        <g id="Artboard" transform="translate(-401.000000, -216.000000)">
            <g id="b2" transform="translate(401.000000, 216.000000)">
                <rect id="Rectangle" fill="#278CC7" x="0" y="9" width="16" height="6"></rect>
                <rect id="Rectangle" fill="#43A8DD" x="18" y="9" width="16" height="6"></rect>
                <rect id="Rectangle" fill="#8ECBEB" x="36" y="9" width="16" height="6"></rect>
                <rect id="Rectangle" fill="#A7D4B0" x="54" y="9" width="16" height="6"></rect>
                <rect id="Rectangle" fill="#EBEBEB" x="72" y="9" width="16" height="6"></rect>
                <rect id="Rectangle" fill="#EBEBEB" x="90" y="9" width="16" height="6"></rect>
                <g transform="translate(57.000000, 0.000000)" fill="#999999">
                    <path d="M0,7.21191406 L0,0.102539062 L2.31933594,0.102539062 C3.06152715,0.102539062 3.64257603,0.26285647 4.0625,0.583496094 C4.48242397,0.904135718 4.69238281,1.38508794 4.69238281,2.02636719 C4.69238281,2.3323583 4.59798271,2.60660686 4.40917969,2.84912109 C4.22037666,3.09163533 3.96972813,3.27636655 3.65722656,3.40332031 C4.12272368,3.4684248 4.49137234,3.6702457 4.76318359,4.00878906 C5.03499485,4.34733242 5.17089844,4.74609146 5.17089844,5.20507812 C5.17089844,5.85612305 4.95931201,6.35335115 4.53613281,6.69677734 C4.11295361,7.04020354 3.54004268,7.21191406 2.81738281,7.21191406 L0,7.21191406 Z M0.961914062,3.87695312 L0.961914062,6.45996094 L2.81738281,6.45996094 C3.25683813,6.45996094 3.5978178,6.35172634 3.84033203,6.13525391 C4.08284626,5.91878147 4.20410156,5.61198115 4.20410156,5.21484375 C4.20410156,4.82096157 4.08040488,4.50358193 3.83300781,4.26269531 C3.58561074,4.02180869 3.25195522,3.89322925 2.83203125,3.87695312 L0.961914062,3.87695312 Z M0.961914062,3.125 L2.51953125,3.125 C2.87760596,3.125 3.16894419,3.02653093 3.39355469,2.82958984 C3.61816519,2.63264875 3.73046875,2.3584002 3.73046875,2.00683594 C3.73046875,1.62271943 3.60921345,1.33545017 3.36669922,1.14501953 C3.12418499,0.954588892 2.77506738,0.859375 2.31933594,0.859375 L0.961914062,0.859375 L0.961914062,3.125 Z" id="Combined-Shape"></path>
                    <path d="M10.6738281,7.21191406 L6.25976562,7.21191406 L6.25976562,6.55273438 L8.49121094,3.89160156 C8.88834834,3.40982832 9.15771414,3.02653137 9.29931641,2.74169922 C9.44091868,2.45686707 9.51171875,2.1695978 9.51171875,1.87988281 C9.51171875,1.55110513 9.41569106,1.28173933 9.22363281,1.07177734 C9.03157456,0.861815356 8.76627773,0.756835938 8.42773437,0.756835938 C8.0078104,0.756835938 7.68798938,0.885415381 7.46826172,1.14257812 C7.24853406,1.39974087 7.13867187,1.72037568 7.13867187,2.10449219 L6.2109375,2.10449219 L6.20117187,2.07519531 C6.18489575,1.49576533 6.37857871,1.00504758 6.78222656,0.603027344 C7.18587441,0.201007104 7.73437153,0 8.42773437,0 C9.06250317,0 9.56217266,0.175779492 9.92675781,0.52734375 C10.291343,0.878908008 10.4736328,1.33300503 10.4736328,1.88964844 C10.4736328,2.26399927 10.370281,2.63020654 10.1635742,2.98828125 C9.95686746,3.34635596 9.6419292,3.79557021 9.21875,4.3359375 L7.42675781,6.43554688 L7.43652344,6.45996094 L10.6738281,6.45996094 L10.6738281,7.21191406 Z" id="Path"></path>
                </g>
            </g>
        </g>
    </g>
</svg>