<?xml version="1.0" encoding="UTF-8"?>
<svg width="106px" height="15px" viewBox="0 0 106 15" version="1.1" xmlns="http://www.w3.org/2000/svg" xmlns:xlink="http://www.w3.org/1999/xlink">
    <!-- Generator: Sketch 52.4 (67378) - http://www.bohemiancoding.com/sketch -->
    <title>c2</title>
    <desc>Created with Sketch.</desc>
    <g id="PuzzleCV-v3" stroke="none" stroke-width="1" fill="none" fill-rule="evenodd">
        <g id="Artboard" transform="translate(-401.000000, -146.000000)">
            <g id="c2" transform="translate(401.000000, 146.000000)">
                <rect id="Rectangle" fill="#278CC7" x="0" y="9" width="16" height="6"></rect>
                <rect id="Rectangle" fill="#43A8DD" x="18" y="9" width="16" height="6"></rect>
                <rect id="Rectangle" fill="#8ECBEB" x="36" y="9" width="16" height="6"></rect>
                <rect id="Rectangle" fill="#A7D4B0" x="54" y="9" width="16" height="6"></rect>
                <rect id="Rectangle" fill="#6DB77C" x="72" y="9" width="16" height="6"></rect>
                <rect id="Rectangle" fill="#65B253" x="90" y="9" width="16" height="6"></rect>
                <g transform="translate(93.000000, 0.000000)" fill="#999999" id="Path">
                    <path d="M5.32714844,4.93652344 L5.33691406,4.96582031 C5.34993496,5.63314136 5.1155623,6.191404 4.63378906,6.640625 C4.15201582,7.089846 3.51562896,7.31445312 2.72460937,7.31445312 C1.9205689,7.31445312 1.26546477,7.02962524 0.759277344,6.45996094 C0.253089917,5.89029663 -1.99840144e-14,5.16764761 -1.99840144e-14,4.29199219 L-1.99840144e-14,3.02734375 C-1.99840144e-14,2.15168833 0.253089917,1.42822551 0.759277344,0.856933594 C1.26546477,0.285641675 1.9205689,0 2.72460937,0 C3.52864985,0 4.16829189,0.214027808 4.64355469,0.642089844 C5.11881748,1.07015188 5.34993496,1.63736626 5.33691406,2.34375 L5.32714844,2.37304688 L4.40429687,2.37304688 C4.40429687,1.87499751 4.25781396,1.48112124 3.96484375,1.19140625 C3.67187354,0.90169126 3.25846621,0.756835938 2.72460937,0.756835938 C2.18749731,0.756835938 1.7594417,0.973305127 1.44042969,1.40625 C1.12141768,1.83919487 0.961914062,2.37629888 0.961914062,3.01757812 L0.961914062,4.29199219 C0.961914062,4.93978188 1.12141768,5.48014106 1.44042969,5.91308594 C1.7594417,6.34603081 2.18749731,6.5625 2.72460937,6.5625 C3.25846621,6.5625 3.67187354,6.41845847 3.96484375,6.13037109 C4.25781396,5.84228372 4.40429687,5.44433848 4.40429687,4.93652344 L5.32714844,4.93652344 Z"></path>
                    <path d="M10.9033203,7.21191406 L6.48925781,7.21191406 L6.48925781,6.55273438 L8.72070312,3.89160156 C9.11784053,3.40982832 9.38720632,3.02653137 9.52880859,2.74169922 C9.67041086,2.45686707 9.74121094,2.1695978 9.74121094,1.87988281 C9.74121094,1.55110513 9.64518325,1.28173933 9.453125,1.07177734 C9.26106675,0.861815356 8.99576992,0.756835938 8.65722656,0.756835938 C8.23730259,0.756835938 7.91748157,0.885415381 7.69775391,1.14257812 C7.47802625,1.39974087 7.36816406,1.72037568 7.36816406,2.10449219 L6.44042969,2.10449219 L6.43066406,2.07519531 C6.41438794,1.49576533 6.6080709,1.00504758 7.01171875,0.603027344 C7.4153666,0.201007104 7.96386372,0 8.65722656,0 C9.29199536,0 9.79166484,0.175779492 10.15625,0.52734375 C10.5208352,0.878908008 10.703125,1.33300503 10.703125,1.88964844 C10.703125,2.26399927 10.5997732,2.63020654 10.3930664,2.98828125 C10.1863596,3.34635596 9.87142139,3.79557021 9.44824219,4.3359375 L7.65625,6.43554688 L7.66601562,6.45996094 L10.9033203,6.45996094 L10.9033203,7.21191406 Z"></path>
                </g>
            </g>
        </g>
    </g>
</svg>