<?xml version="1.0" encoding="UTF-8"?>
<svg width="14px" height="11px" viewBox="0 0 14 11" version="1.1" xmlns="http://www.w3.org/2000/svg" xmlns:xlink="http://www.w3.org/1999/xlink">
    <!-- Generator: Sketch 52.4 (67378) - http://www.bohemiancoding.com/sketch -->
    <title>Fill 133 Copy</title>
    <desc>Created with Sketch.</desc>
    <g id="PuzzleCV-v3" stroke="none" stroke-width="1" fill="none" fill-rule="evenodd">
        <g id="Artboard" transform="translate(-353.000000, -192.000000)" fill="#3B7BBE">
            <path d="M364.875956,201.645376 C364.831158,201.915741 365.774711,202.358411 365.864307,201.56973 C366.268887,198.017582 365.573121,196.995238 365.573121,196.995238 L364.59737,197.541992 C364.59737,197.541992 365.424729,198.330253 364.875956,201.645376 L364.875956,201.645376 Z M366.656667,195.45738 L360.830158,192.191847 C360.373781,191.936051 359.626219,191.936051 359.169842,192.191847 L353.343333,195.45738 C352.885556,195.713176 352.885556,196.131751 353.343333,196.387547 L359.169842,199.65336 C359.626219,199.908316 360.373781,199.908316 360.830158,199.65336 L364.59737,197.541992 L360.512374,196.584508 C360.354182,196.623592 360.181991,196.645445 360,196.645445 C359.263637,196.645445 358.667267,196.290328 358.667267,195.852281 C358.667267,195.414234 359.263637,195.058977 360,195.058977 C360.571171,195.058977 361.056947,195.273588 361.245938,195.574211 L365.573121,196.995238 L366.656667,196.387547 C367.114444,196.131751 367.114444,195.713176 366.656667,195.45738 L366.656667,195.45738 Z M355.311634,198.891295 C355.636418,200.208099 356.049398,200.782449 357.426929,201.386218 C358.80446,201.988585 359.459627,202.646987 360,202.646987 C360.540373,202.646987 361.153542,202.069835 362.531073,201.467467 C363.910004,200.8651 363.541823,200.681588 363.866607,199.364784 L360,201.246132 L355.311634,198.891295 L355.311634,198.891295 Z" id="Fill-133-Copy"></path>
        </g>
    </g>
</svg>