<?xml version="1.0" encoding="UTF-8"?>
<svg width="127px" height="19px" viewBox="0 0 127 19" version="1.1" xmlns="http://www.w3.org/2000/svg" xmlns:xlink="http://www.w3.org/1999/xlink">
    <!-- Generator: Sketch 52.4 (67378) - http://www.bohemiancoding.com/sketch -->
    <title>muttersprache copy</title>
    <desc>Created with Sketch.</desc>
    <g id="PuzzleCV-v3" stroke="none" stroke-width="1" fill="none" fill-rule="evenodd">
        <g id="Language-Levels" transform="translate(-554.000000, -162.000000)">
            <g id="muttersprache-copy" transform="translate(554.000000, 162.000000)">
                <g id="c2-copy" transform="translate(0.000000, 11.875000)">
                    <rect id="Rectangle" fill="#278CC7" x="0" y="0" width="19.1698113" height="7.125"></rect>
                    <rect id="Rectangle" fill="#43A8DD" x="21.5660377" y="0" width="19.1698113" height="7.125"></rect>
                    <rect id="Rectangle" fill="#8ECBEB" x="43.1320755" y="0" width="19.1698113" height="7.125"></rect>
                    <rect id="Rectangle" fill="#A7D4B0" x="64.6981132" y="0" width="19.1698113" height="7.125"></rect>
                    <rect id="Rectangle" fill="#6DB77C" x="86.2641509" y="0" width="19.1698113" height="7.125"></rect>
                    <rect id="Rectangle" fill="#65B253" x="107.830189" y="0" width="19.1698113" height="7.125"></rect>
                </g>
                <path d="M29.1806088,7.91705322 L29.2157098,7.91705322 L31.9360352,1.05761719 L33.3693249,1.05761719 L33.3693249,9.5 L32.2168429,9.5 L32.2168429,3.17401123 L32.181742,3.16821289 L29.6018205,9.5 L28.8003482,9.5 L26.1443746,2.95947266 L26.1092737,2.965271 L26.1092737,9.5 L24.9567917,9.5 L24.9567917,1.05761719 L26.4719837,1.05761719 L29.1806088,7.91705322 Z M39.2253372,8.57226562 C39.0264307,8.90857102 38.7709762,9.16756094 38.4589659,9.34924316 C38.1469557,9.53092539 37.7861994,9.62176514 37.376686,9.62176514 C36.6863634,9.62176514 36.1481538,9.40336319 35.7620412,8.96655273 C35.3759286,8.52974228 35.1828751,7.84941054 35.1828751,6.92553711 L35.1828751,3.22619629 L36.3353571,3.22619629 L36.3353571,6.93713379 C36.3353571,7.60587899 36.4348089,8.06587602 36.6337154,8.31713867 C36.8326219,8.56840132 37.1426774,8.69403076 37.5638911,8.69403076 C37.9734045,8.69403076 38.3117355,8.61188844 38.5788943,8.44760132 C38.846053,8.2833142 39.0478816,8.05041655 39.1843861,7.74890137 L39.1843861,3.22619629 L40.336868,3.22619629 L40.336868,9.5 L39.3013893,9.5 L39.2253372,8.57226562 Z M43.618809,1.71282959 L43.618809,3.22619629 L44.8180922,3.22619629 L44.8180922,4.07275391 L43.618809,4.07275391 L43.618809,7.88226318 C43.618809,8.1760472 43.6802351,8.38285259 43.8030891,8.50268555 C43.9259431,8.6225185 44.088771,8.68243408 44.2915776,8.68243408 C44.3578798,8.68243408 44.4319811,8.67373666 44.5138838,8.65634155 C44.5957865,8.63894645 44.6640377,8.62058522 44.7186394,8.60125732 L44.8765938,9.3840332 C44.790791,9.45361363 44.6640388,9.51063007 44.4963333,9.55508423 C44.3286278,9.59953839 44.1628749,9.62176514 43.9990695,9.62176514 C43.5310542,9.62176514 43.1585976,9.48163999 42.8816885,9.2013855 C42.6047795,8.921131 42.466327,8.48142796 42.466327,7.88226318 L42.466327,4.07275391 L41.4600991,4.07275391 L41.4600991,3.22619629 L42.466327,3.22619629 L42.466327,1.71282959 L43.618809,1.71282959 Z M47.6554208,1.71282959 L47.6554208,3.22619629 L48.8547041,3.22619629 L48.8547041,4.07275391 L47.6554208,4.07275391 L47.6554208,7.88226318 C47.6554208,8.1760472 47.7168469,8.38285259 47.839701,8.50268555 C47.962555,8.6225185 48.1253829,8.68243408 48.3281895,8.68243408 C48.3944917,8.68243408 48.468593,8.67373666 48.5504957,8.65634155 C48.6323983,8.63894645 48.7006495,8.62058522 48.7552513,8.60125732 L48.9132057,9.3840332 C48.8274029,9.45361363 48.7006507,9.51063007 48.5329452,9.55508423 C48.3652397,9.59953839 48.1994867,9.62176514 48.0356814,9.62176514 C47.5676661,9.62176514 47.1952095,9.48163999 46.9183004,9.2013855 C46.6413914,8.921131 46.5029389,8.48142796 46.5029389,7.88226318 L46.5029389,4.07275391 L45.496711,4.07275391 L45.496711,3.22619629 L46.5029389,3.22619629 L46.5029389,1.71282959 L47.6554208,1.71282959 Z M52.7099609,9.62176514 C51.8012312,9.62176514 51.0923936,9.3337838 50.583427,8.7578125 C50.0744603,8.1818412 49.8199808,7.42419903 49.8199808,6.48486328 L49.8199808,6.22973633 C49.8199808,5.32905637 50.0822605,4.58397715 50.6068276,3.99447632 C51.1313948,3.40497549 51.7719812,3.11022949 52.5286059,3.11022949 C53.3749336,3.11022949 54.0096698,3.37115218 54.4328337,3.89300537 C54.8559975,4.41485857 55.0675763,5.10871963 55.0675763,5.97460938 L55.0675763,6.57763672 L51.0192641,6.57763672 L51.0017136,6.60662842 C51.0017136,7.23671783 51.1421161,7.74793302 51.4229253,8.14028931 C51.7037345,8.5326456 52.1327421,8.7288208 52.7099609,8.7288208 C53.0999737,8.7288208 53.4422048,8.67373712 53.7366644,8.56356812 C54.031124,8.45339911 54.2836535,8.3016774 54.4942604,8.10839844 L54.9447229,8.85058594 C54.7185155,9.06705837 54.4201602,9.24970425 54.0496481,9.39852905 C53.6791359,9.54735385 53.232578,9.62176514 52.7099609,9.62176514 Z M52.5286059,4.00897217 C52.1268928,4.00897217 51.7944119,4.16262664 51.5311533,4.46994019 C51.2678947,4.77725373 51.1070168,5.17057052 51.0485149,5.64990234 L51.0602152,5.67889404 L53.9150943,5.67889404 L53.9150943,5.58612061 C53.9150943,5.12998226 53.8019923,4.75309394 53.5757849,4.45544434 C53.3495775,4.15779474 53.0005214,4.00897217 52.5286059,4.00897217 Z M59.3557451,4.23510742 L58.7648788,4.20031738 C58.4606688,4.20031738 58.2042393,4.27182953 57.9955824,4.41485596 C57.7869256,4.55788239 57.6260478,4.75888949 57.5129441,5.0178833 L57.5129441,9.5 L56.3604621,9.5 L56.3604621,3.22619629 L57.3900907,3.22619629 L57.5012437,4.14233398 C57.6806496,3.81762533 57.9019785,3.56443369 58.1652371,3.38275146 C58.4284958,3.20106924 58.7317261,3.11022949 59.0749374,3.11022949 C59.1607402,3.11022949 59.2426416,3.11699415 59.3206442,3.13052368 C59.3986467,3.14405321 59.4629979,3.15854891 59.5136995,3.17401123 L59.3557451,4.23510742 Z M64.2347804,7.81268311 C64.2347804,7.56142046 64.1382537,7.35654783 63.9451973,7.19805908 C63.752141,7.03957033 63.3865095,6.90041157 62.8482919,6.78057861 C62.1033676,6.62208987 61.5310324,6.39982239 61.1312693,6.11376953 C60.7315063,5.82771667 60.5316277,5.44503007 60.5316277,4.96569824 C60.5316277,4.45544178 60.7510066,4.01863788 61.189771,3.65527344 C61.6285353,3.29190899 62.1969704,3.11022949 62.8950932,3.11022949 C63.6127167,3.11022949 64.193827,3.30350555 64.6384416,3.69006348 C65.0830561,4.0766214 65.2956099,4.52695462 65.2761092,5.04107666 L65.2644089,5.0758667 L64.1645784,5.0758667 C64.1645784,4.80527615 64.0446513,4.55981555 63.8047934,4.33947754 C63.5649356,4.11913952 63.2617052,4.00897217 62.8950932,4.00897217 C62.48948,4.00897217 62.1862496,4.09981192 61.985393,4.28149414 C61.7845364,4.46317636 61.6841097,4.67964555 61.6841097,4.9309082 C61.6841097,5.17830527 61.7708862,5.36964857 61.9444419,5.50494385 C62.1179976,5.64023912 62.4758289,5.7639358 63.0179466,5.8760376 C63.794072,6.03839193 64.3829825,6.26839044 64.7846956,6.56604004 C65.1864087,6.86368964 65.3872623,7.25217452 65.3872623,7.73150635 C65.3872623,8.28814976 65.1600833,8.7423485 64.7057184,9.09411621 C64.2513536,9.44588392 63.657568,9.62176514 62.924344,9.62176514 C62.1170176,9.62176514 61.4813064,9.41882527 61.0171912,9.01293945 C60.553076,8.60705363 60.3327221,8.13352728 60.3561229,7.59234619 L60.3678232,7.55755615 L61.4676537,7.55755615 C61.4871543,7.96344197 61.639257,8.26012073 61.9239663,8.44760132 C62.2086756,8.63508191 62.5421315,8.7288208 62.924344,8.7288208 C63.3338574,8.7288208 63.6546381,8.64281295 63.8866957,8.47079468 C64.1187533,8.2987764 64.2347804,8.07940807 64.2347804,7.81268311 Z M72.2144015,6.60083008 C72.2144015,7.50537562 71.9959977,8.23499275 71.5591834,8.78970337 C71.1223691,9.34441399 70.5198084,9.62176514 69.7514833,9.62176514 C69.3614705,9.62176514 69.0192394,9.55701766 68.7247798,9.42752075 C68.4303202,9.29802385 68.1797407,9.10378141 67.973034,8.8447876 L67.973034,11.9121094 L66.820552,11.9121094 L66.820552,3.22619629 L67.7039265,3.22619629 L67.8852815,4.03796387 C68.0919883,3.73644869 68.3493929,3.50645017 68.6575029,3.34796143 C68.965613,3.18947268 69.3244194,3.11022949 69.7339328,3.11022949 C70.5178584,3.11022949 71.1272442,3.41850481 71.5621085,4.0350647 C71.9969727,4.65162458 72.2144015,5.46628318 72.2144015,6.47906494 L72.2144015,6.60083008 Z M71.0619196,6.47906494 C71.0619196,5.76779836 70.9205421,5.18313828 70.6377828,4.72506714 C70.3550236,4.266996 69.9386912,4.03796387 69.3887732,4.03796387 C69.0572624,4.03796387 68.7745074,4.11237515 68.5404997,4.26119995 C68.306492,4.41002475 68.1173387,4.613931 67.973034,4.8729248 L67.973034,7.90545654 C68.1173387,8.16445035 68.306492,8.36642384 68.5404997,8.51138306 C68.7745074,8.65634228 69.0611624,8.7288208 69.4004735,8.7288208 C69.9464914,8.7288208 70.3598987,8.53071284 70.6407079,8.13449097 C70.9215171,7.7382691 71.0619196,7.22705391 71.0619196,6.60083008 L71.0619196,6.47906494 Z M76.6254238,4.23510742 L76.0345574,4.20031738 C75.7303475,4.20031738 75.4739179,4.27182953 75.2652611,4.41485596 C75.0566043,4.55788239 74.8957264,4.75888949 74.7826227,5.0178833 L74.7826227,9.5 L73.6301408,9.5 L73.6301408,3.22619629 L74.6597693,3.22619629 L74.7709224,4.14233398 C74.9503283,3.81762533 75.1716572,3.56443369 75.4349158,3.38275146 C75.6981744,3.20106924 76.0014048,3.11022949 76.344616,3.11022949 C76.4304188,3.11022949 76.5123203,3.11699415 76.5903228,3.13052368 C76.6683254,3.14405321 76.7326765,3.15854891 76.7833782,3.17401123 L76.6254238,4.23510742 Z M81.7150649,9.5 C81.6760636,9.31058662 81.645838,9.14340282 81.6243873,8.9984436 C81.6029366,8.85348438 81.5902614,8.70756096 81.5863613,8.56066895 C81.3718543,8.86218412 81.0920243,9.11440939 80.746863,9.31735229 C80.4017017,9.5202952 80.0302201,9.62176514 79.6324071,9.62176514 C78.9732856,9.62176514 78.4711517,9.45458134 78.1259904,9.12020874 C77.7808291,8.78583614 77.608251,8.32487273 77.608251,7.73730469 C77.608251,7.13813991 77.8529804,6.66944546 78.3424464,6.33120728 C78.8319124,5.99296909 79.4958992,5.82385254 80.3344266,5.82385254 L81.5863613,5.82385254 L81.5863613,5.20343018 C81.5863613,4.83620015 81.4732593,4.54531968 81.2470519,4.33078003 C81.0208445,4.11624038 80.7010388,4.00897217 80.2876253,4.00897217 C79.913213,4.00897217 79.6109577,4.10174468 79.3808502,4.28729248 C79.1507426,4.47284028 79.0356906,4.69510775 79.0356906,4.95410156 L77.9417103,4.96569824 L77.9300099,4.9309082 C77.9027091,4.47476985 78.1181879,4.05729356 78.5764529,3.6784668 C79.0347179,3.29964003 79.6265533,3.11022949 80.3519771,3.11022949 C81.0696006,3.11022949 81.6468108,3.29094261 82.0836251,3.65237427 C82.5204394,4.01380592 82.7388432,4.53468491 82.7388432,5.21502686 L82.7388432,8.23596191 C82.7388432,8.46016551 82.7505434,8.6766347 82.7739442,8.88537598 C82.797345,9.09411725 82.8402457,9.29898988 82.9026478,9.5 L81.7150649,9.5 Z M79.8020618,8.66503906 C80.2193755,8.66503906 80.5957322,8.55873723 80.9311431,8.34613037 C81.2665541,8.13352351 81.484958,7.88999568 81.5863613,7.61553955 L81.5863613,6.59503174 L80.2934755,6.59503174 C79.8293603,6.59503174 79.4578787,6.71099738 79.1790196,6.94293213 C78.9001604,7.17486688 78.760733,7.44738613 78.760733,7.76049805 C78.760733,8.03881975 78.8484845,8.25915446 79.0239903,8.42150879 C79.199496,8.58386312 79.4588506,8.66503906 79.8020618,8.66503906 Z M86.9275593,8.7288208 C87.2824709,8.7288208 87.5925264,8.61188878 87.8577351,8.37802124 C88.1229438,8.1441537 88.2555461,7.85713875 88.2555461,7.51696777 L89.296875,7.51696777 L89.3144255,7.55175781 C89.330026,8.0929389 89.0960219,8.57322992 88.612406,8.99264526 C88.1287902,9.41206061 87.5671803,9.62176514 86.9275593,9.62176514 C86.0383302,9.62176514 85.3519181,9.32218724 84.8683023,8.72302246 C84.3846864,8.12385768 84.1428821,7.37781208 84.1428821,6.48486328 L84.1428821,6.24133301 C84.1428821,5.35611537 84.3856615,4.61296891 84.8712273,4.01187134 C85.3567932,3.41077377 86.0422304,3.11022949 86.9275593,3.11022949 C87.6334824,3.11022949 88.2116677,3.32669868 88.6621324,3.75964355 C89.1125971,4.19258843 89.330026,4.7240976 89.3144255,5.35418701 L89.3027252,5.38897705 L88.2555461,5.38897705 C88.2555461,5.00628471 88.1297689,4.68061454 87.8782107,4.41195679 C87.6266524,4.14329903 87.3097718,4.00897217 86.9275593,4.00897217 C86.3620408,4.00897217 85.9496085,4.22640774 85.69025,4.6612854 C85.4308916,5.09616306 85.3012143,5.62284033 85.3012143,6.24133301 L85.3012143,6.48486328 C85.3012143,7.11495269 85.4289415,7.64646187 85.6843999,8.07940674 C85.9398582,8.51235161 86.3542406,8.7288208 86.9275593,8.7288208 Z M91.8358454,4.06695557 C92.0542525,3.76544039 92.3223823,3.53060997 92.6402427,3.36245728 C92.9581031,3.19430458 93.3100843,3.11022949 93.6961969,3.11022949 C94.370919,3.11022949 94.8964533,3.3112366 95.2728156,3.71325684 C95.6491779,4.11527708 95.8373563,4.73376047 95.8373563,5.56872559 L95.8373563,9.5 L94.6848743,9.5 L94.6848743,5.55712891 C94.6848743,5.03914129 94.5727474,4.65645469 94.34849,4.40905762 C94.1242327,4.16166055 93.7898018,4.03796387 93.3451872,4.03796387 C93.001976,4.03796387 92.7036207,4.10464411 92.4501124,4.23800659 C92.1966041,4.37136908 91.9918505,4.55788047 91.8358454,4.79754639 L91.8358454,9.5 L90.6833634,9.5 L90.6833634,0.454589844 L91.8358454,0.454589844 L91.8358454,4.06695557 Z M100.113825,9.62176514 C99.2050951,9.62176514 98.4962575,9.3337838 97.9872909,8.7578125 C97.4783242,8.1818412 97.2238447,7.42419903 97.2238447,6.48486328 L97.2238447,6.22973633 C97.2238447,5.32905637 97.4861244,4.58397715 98.0106915,3.99447632 C98.5352587,3.40497549 99.175845,3.11022949 99.9324698,3.11022949 C100.778797,3.11022949 101.413534,3.37115218 101.836698,3.89300537 C102.259861,4.41485857 102.47144,5.10871963 102.47144,5.97460938 L102.47144,6.57763672 L98.4231279,6.57763672 L98.4055775,6.60662842 C98.4055775,7.23671783 98.5459799,7.74793302 98.8267891,8.14028931 C99.1075983,8.5326456 99.5366059,8.7288208 100.113825,8.7288208 C100.503838,8.7288208 100.846069,8.67373712 101.140528,8.56356812 C101.434988,8.45339911 101.687517,8.3016774 101.898124,8.10839844 L102.348587,8.85058594 C102.122379,9.06705837 101.824024,9.24970425 101.453512,9.39852905 C101.083,9.54735385 100.636442,9.62176514 100.113825,9.62176514 Z M99.9324698,4.00897217 C99.5307566,4.00897217 99.1982757,4.16262664 98.9350171,4.46994019 C98.6717585,4.77725373 98.5108807,5.17057052 98.4523788,5.64990234 L98.4640791,5.67889404 L101.318958,5.67889404 L101.318958,5.58612061 C101.318958,5.12998226 101.205856,4.75309394 100.979649,4.45544434 C100.753441,4.15779474 100.404385,4.00897217 99.9324698,4.00897217 Z" id="Muttersprache" fill="#999999"></path>
            </g>
        </g>
    </g>
</svg>