<?xml version="1.0" encoding="UTF-8"?>
<svg width="106px" height="16px" viewBox="0 0 106 16" version="1.1" xmlns="http://www.w3.org/2000/svg" xmlns:xlink="http://www.w3.org/1999/xlink">
    <!-- Generator: Sketch 52.4 (67378) - http://www.bohemiancoding.com/sketch -->
    <title>muttersprache</title>
    <desc>Created with Sketch.</desc>
    <g id="PuzzleCV-v3" stroke="none" stroke-width="1" fill="none" fill-rule="evenodd">
        <g id="Language-Levels" transform="translate(-265.000000, -11.000000)">
            <g id="muttersprache" transform="translate(265.000000, 11.000000)">
                <g id="c2-copy" transform="translate(0.000000, 10.000000)">
                    <rect id="Rectangle" fill="#278CC7" x="0" y="0" width="16" height="6"></rect>
                    <rect id="Rectangle" fill="#43A8DD" x="18" y="0" width="16" height="6"></rect>
                    <rect id="Rectangle" fill="#8ECBEB" x="36" y="0" width="16" height="6"></rect>
                    <rect id="Rectangle" fill="#A7D4B0" x="54" y="0" width="16" height="6"></rect>
                    <rect id="Rectangle" fill="#6DB77C" x="72" y="0" width="16" height="6"></rect>
                    <rect id="Rectangle" fill="#65B253" x="90" y="0" width="16" height="6"></rect>
                </g>
                <path d="M24.3554688,6.66699219 L24.3847656,6.66699219 L26.6552734,0.890625 L27.8515625,0.890625 L27.8515625,8 L26.8896484,8 L26.8896484,2.67285156 L26.8603516,2.66796875 L24.7070312,8 L24.0380859,8 L21.8212891,2.4921875 L21.7919922,2.49707031 L21.7919922,8 L20.8300781,8 L20.8300781,0.890625 L22.0947266,0.890625 L24.3554688,6.66699219 Z M32.7392578,7.21875 C32.5732414,7.50195454 32.3600273,7.72005132 32.0996094,7.87304688 C31.8391914,8.02604243 31.5380876,8.10253906 31.1962891,8.10253906 C30.6201143,8.10253906 30.1709,7.91862163 29.8486328,7.55078125 C29.5263656,7.18294087 29.3652344,6.61002993 29.3652344,5.83203125 L29.3652344,2.71679688 L30.3271484,2.71679688 L30.3271484,5.84179688 C30.3271484,6.40495073 30.4101554,6.79231665 30.5761719,7.00390625 C30.7421883,7.21549585 31.0009748,7.32128906 31.3525391,7.32128906 C31.6943376,7.32128906 31.9767241,7.25211658 32.199707,7.11376953 C32.4226899,6.97542249 32.5911453,6.77929814 32.7050781,6.52539062 L32.7050781,2.71679688 L33.6669922,2.71679688 L33.6669922,8 L32.8027344,8 L32.7392578,7.21875 Z M36.40625,1.44238281 L36.40625,2.71679688 L37.4072266,2.71679688 L37.4072266,3.4296875 L36.40625,3.4296875 L36.40625,6.63769531 C36.40625,6.88509238 36.457519,7.05924429 36.5600586,7.16015625 C36.6625982,7.26106821 36.7985018,7.31152344 36.9677734,7.31152344 C37.0231123,7.31152344 37.0849606,7.30419929 37.1533203,7.28955078 C37.22168,7.27490227 37.2786456,7.25944019 37.3242188,7.24316406 L37.4560547,7.90234375 C37.3844397,7.96093779 37.2786465,8.00895164 37.1386719,8.04638672 C36.9986972,8.0838218 36.8603522,8.10253906 36.7236328,8.10253906 C36.3330059,8.10253906 36.0221366,7.98453894 35.7910156,7.74853516 C35.5598947,7.51253137 35.4443359,7.14225513 35.4443359,6.63769531 L35.4443359,3.4296875 L34.6044922,3.4296875 L34.6044922,2.71679688 L35.4443359,2.71679688 L35.4443359,1.44238281 L36.40625,1.44238281 Z M39.7753906,1.44238281 L39.7753906,2.71679688 L40.7763672,2.71679688 L40.7763672,3.4296875 L39.7753906,3.4296875 L39.7753906,6.63769531 C39.7753906,6.88509238 39.8266596,7.05924429 39.9291992,7.16015625 C40.0317388,7.26106821 40.1676424,7.31152344 40.3369141,7.31152344 C40.3922529,7.31152344 40.4541012,7.30419929 40.5224609,7.28955078 C40.5908207,7.27490227 40.6477862,7.25944019 40.6933594,7.24316406 L40.8251953,7.90234375 C40.7535804,7.96093779 40.6477872,8.00895164 40.5078125,8.04638672 C40.3678378,8.0838218 40.2294929,8.10253906 40.0927734,8.10253906 C39.7021465,8.10253906 39.3912772,7.98453894 39.1601562,7.74853516 C38.9290353,7.51253137 38.8134766,7.14225513 38.8134766,6.63769531 L38.8134766,3.4296875 L37.9736328,3.4296875 L37.9736328,2.71679688 L38.8134766,2.71679688 L38.8134766,1.44238281 L39.7753906,1.44238281 Z M43.9941406,8.10253906 C43.2356733,8.10253906 42.6440451,7.86002847 42.2192383,7.375 C41.7944315,6.88997153 41.5820312,6.25195708 41.5820312,5.4609375 L41.5820312,5.24609375 C41.5820312,4.48762642 41.8009418,3.86019128 42.2387695,3.36376953 C42.6765972,2.86734778 43.2112599,2.61914062 43.8427734,2.61914062 C44.5491572,2.61914062 45.078937,2.83886499 45.4321289,3.27832031 C45.7853208,3.71777563 45.9619141,4.30207969 45.9619141,5.03125 L45.9619141,5.5390625 L42.5830078,5.5390625 L42.5683594,5.56347656 C42.5683594,6.09407817 42.6855457,6.52457517 42.9199219,6.85498047 C43.154298,7.18538577 43.5123674,7.35058594 43.9941406,7.35058594 C44.3196631,7.35058594 44.6053048,7.30419968 44.8510742,7.21142578 C45.0968437,7.11865188 45.3076163,6.99088623 45.4833984,6.828125 L45.859375,7.453125 C45.670572,7.63541758 45.421551,7.78922463 45.1123047,7.91455078 C44.8030583,8.03987693 44.4303407,8.10253906 43.9941406,8.10253906 Z M43.8427734,3.37597656 C43.5074853,3.37597656 43.2299816,3.5053698 43.0102539,3.76416016 C42.7905262,4.02295051 42.6562502,4.35416465 42.6074219,4.7578125 L42.6171875,4.78222656 L45,4.78222656 L45,4.70410156 C45,4.31998506 44.9055999,4.00260542 44.7167969,3.75195312 C44.5279938,3.50130083 44.2366556,3.37597656 43.8427734,3.37597656 Z M49.5410156,3.56640625 L49.0478516,3.53710938 C48.793944,3.53710938 48.5799162,3.59733013 48.4057617,3.71777344 C48.2316072,3.83821675 48.0973312,4.00748589 48.0029297,4.22558594 L48.0029297,8 L47.0410156,8 L47.0410156,2.71679688 L47.9003906,2.71679688 L47.9931641,3.48828125 C48.1429044,3.21484238 48.3276356,3.00162837 48.5473633,2.84863281 C48.7670909,2.69563726 49.0201809,2.61914062 49.3066406,2.61914062 C49.3782556,2.61914062 49.4466143,2.62483718 49.5117188,2.63623047 C49.5768232,2.64762375 49.6305336,2.65983066 49.6728516,2.67285156 L49.5410156,3.56640625 Z M53.6132812,6.57910156 C53.6132812,6.36751196 53.5327156,6.19498765 53.371582,6.06152344 C53.2104484,5.92805923 52.9052757,5.8108729 52.4560547,5.70996094 C51.8343068,5.57649673 51.3566097,5.38932412 51.0229492,5.1484375 C50.6892887,4.90755088 50.5224609,4.58528848 50.5224609,4.18164062 C50.5224609,3.75195098 50.7055646,3.38411611 51.0717773,3.078125 C51.4379901,2.77213389 51.912432,2.61914062 52.4951172,2.61914062 C53.0940785,2.61914062 53.5790997,2.78189941 53.9501953,3.10742188 C54.3212909,3.43294434 54.498698,3.81217231 54.4824219,4.24511719 L54.4726562,4.27441406 L53.5546875,4.27441406 C53.5546875,4.04654834 53.4545908,3.83984468 53.2543945,3.65429688 C53.0541982,3.46874907 52.8011083,3.37597656 52.4951172,3.37597656 C52.1565738,3.37597656 51.9034839,3.45247319 51.7358398,3.60546875 C51.5681958,3.75846431 51.484375,3.94075415 51.484375,4.15234375 C51.484375,4.36067812 51.5568027,4.52180933 51.7016602,4.63574219 C51.8465177,4.74967505 52.14518,4.85384067 52.5976562,4.94824219 C53.2454459,5.08496162 53.7369775,5.27864458 54.0722656,5.52929688 C54.4075538,5.77994917 54.5751953,6.10709434 54.5751953,6.51074219 C54.5751953,6.97949453 54.3855813,7.36197769 54.0063477,7.65820312 C53.627114,7.95442856 53.1315135,8.10253906 52.5195312,8.10253906 C51.8456998,8.10253906 51.3151061,7.93164233 50.9277344,7.58984375 C50.5403626,7.24804517 50.3564452,6.84928613 50.3759766,6.39355469 L50.3857422,6.36425781 L51.3037109,6.36425781 C51.3199871,6.7060564 51.4469389,6.95589114 51.6845703,7.11376953 C51.9222017,7.27164792 52.2005192,7.35058594 52.5195312,7.35058594 C52.8613298,7.35058594 53.129068,7.27815828 53.3227539,7.13330078 C53.5164398,6.98844329 53.6132812,6.80371206 53.6132812,6.57910156 Z M60.2734375,5.55859375 C60.2734375,6.32031631 60.0911477,6.93473074 59.7265625,7.40185547 C59.3619773,7.8689802 58.8590527,8.10253906 58.2177734,8.10253906 C57.892251,8.10253906 57.6066093,8.04801487 57.3608398,7.93896484 C57.1150704,7.82991482 56.9059253,7.66634224 56.7333984,7.44824219 L56.7333984,10.03125 L55.7714844,10.03125 L55.7714844,2.71679688 L56.5087891,2.71679688 L56.6601562,3.40039062 C56.8326832,3.14648311 57.0475248,2.95280015 57.3046875,2.81933594 C57.5618502,2.68587173 57.8613264,2.61914062 58.203125,2.61914062 C58.8574251,2.61914062 59.3660464,2.87874089 59.7290039,3.39794922 C60.0919615,3.91715754 60.2734375,4.60318584 60.2734375,5.45605469 L60.2734375,5.55859375 Z M59.3115234,5.45605469 C59.3115234,4.85709336 59.1935233,4.36474802 58.9575195,3.97900391 C58.7215157,3.59325979 58.3740257,3.40039062 57.9150391,3.40039062 C57.638345,3.40039062 57.4023447,3.46305276 57.2070312,3.58837891 C57.0117178,3.71370505 56.8538417,3.88541558 56.7333984,4.10351562 L56.7333984,6.65722656 C56.8538417,6.87532661 57.0117178,7.04540955 57.2070312,7.16748047 C57.4023447,7.28955139 57.6416001,7.35058594 57.9248047,7.35058594 C58.3805361,7.35058594 58.7255848,7.18375818 58.9599609,6.85009766 C59.1943371,6.51643713 59.3115234,6.08594014 59.3115234,5.55859375 L59.3115234,5.45605469 Z M63.9550781,3.56640625 L63.4619141,3.53710938 C63.2080065,3.53710938 62.9939787,3.59733013 62.8198242,3.71777344 C62.6456697,3.83821675 62.5113937,4.00748589 62.4169922,4.22558594 L62.4169922,8 L61.4550781,8 L61.4550781,2.71679688 L62.3144531,2.71679688 L62.4072266,3.48828125 C62.5569669,3.21484238 62.7416981,3.00162837 62.9614258,2.84863281 C63.1811534,2.69563726 63.4342434,2.61914062 63.7207031,2.61914062 C63.7923181,2.61914062 63.8606768,2.62483718 63.9257812,2.63623047 C63.9908857,2.64762375 64.0445961,2.65983066 64.0869141,2.67285156 L63.9550781,3.56640625 Z M68.203125,8 C68.1705728,7.84049399 68.1453451,7.69970764 68.1274414,7.57763672 C68.1095377,7.4555658 68.0989583,7.33268291 68.0957031,7.20898438 C67.9166658,7.46289189 67.6831069,7.67529211 67.3950195,7.84619141 C67.1069322,8.0170907 66.7968767,8.10253906 66.4648438,8.10253906 C65.9147108,8.10253906 65.4956069,7.96175271 65.2075195,7.68017578 C64.9194322,7.39859885 64.7753906,7.01041914 64.7753906,6.515625 C64.7753906,6.01106519 64.9796529,5.61637512 65.3881836,5.33154297 C65.7967143,5.04671082 66.350908,4.90429688 67.0507812,4.90429688 L68.0957031,4.90429688 L68.0957031,4.38183594 C68.0957031,4.0725896 68.001303,3.82763762 67.8125,3.64697266 C67.623697,3.46630769 67.3567726,3.37597656 67.0117188,3.37597656 C66.6992172,3.37597656 66.4469411,3.45410078 66.2548828,3.61035156 C66.0628246,3.76660234 65.9667969,3.95377495 65.9667969,4.171875 L65.0537109,4.18164062 L65.0439453,4.15234375 C65.0211587,3.76822725 65.2010072,3.41666826 65.5834961,3.09765625 C65.965985,2.77864424 66.4599579,2.61914062 67.0654297,2.61914062 C67.664391,2.61914062 68.146157,2.77132009 68.5107422,3.07568359 C68.8753273,3.38004709 69.0576172,3.81868203 69.0576172,4.39160156 L69.0576172,6.93554688 C69.0576172,7.1243499 69.0673827,7.30663975 69.0869141,7.48242188 C69.1064454,7.658204 69.1422523,7.83072832 69.1943359,8 L68.203125,8 Z M66.6064453,7.296875 C66.9547543,7.296875 67.2688788,7.20735767 67.5488281,7.02832031 C67.8287774,6.84928296 68.0110673,6.64420688 68.0957031,6.41308594 L68.0957031,5.55371094 L67.0166016,5.55371094 C66.6292298,5.55371094 66.3191743,5.65136621 66.0864258,5.84667969 C65.8536772,6.04199316 65.7373047,6.27148306 65.7373047,6.53515625 C65.7373047,6.76953242 65.8105461,6.95507744 65.9570312,7.09179688 C66.1035164,7.22851631 66.3199855,7.296875 66.6064453,7.296875 Z M72.5537109,7.35058594 C72.8499364,7.35058594 73.1087229,7.25211687 73.3300781,7.05517578 C73.5514334,6.85823469 73.6621094,6.61653789 73.6621094,6.33007812 L74.53125,6.33007812 L74.5458984,6.359375 C74.5589193,6.81510645 74.3636088,7.21956204 73.9599609,7.57275391 C73.5563131,7.92594578 73.0875678,8.10253906 72.5537109,8.10253906 C71.8115197,8.10253906 71.2386088,7.85026294 70.8349609,7.34570312 C70.4313131,6.84114331 70.2294922,6.21289438 70.2294922,5.4609375 L70.2294922,5.25585938 C70.2294922,4.51041294 70.4321269,3.8846054 70.8374023,3.37841797 C71.2426778,2.87223054 71.814775,2.61914062 72.5537109,2.61914062 C73.1429066,2.61914062 73.6254864,2.80143047 74.0014648,3.16601562 C74.3774433,3.53060078 74.5589193,3.97818745 74.5458984,4.50878906 L74.5361328,4.53808594 L73.6621094,4.53808594 C73.6621094,4.2158187 73.55713,3.94157014 73.347168,3.71533203 C73.137206,3.48909392 72.8727229,3.37597656 72.5537109,3.37597656 C72.0817034,3.37597656 71.7374685,3.5590802 71.5209961,3.92529297 C71.3045237,4.29150574 71.1962891,4.73502344 71.1962891,5.25585938 L71.1962891,5.4609375 C71.1962891,5.99153911 71.3028961,6.43912578 71.5161133,6.80371094 C71.7293305,7.16829609 72.0751929,7.35058594 72.5537109,7.35058594 Z M76.6503906,3.42480469 C76.8326832,3.17089717 77.0564765,2.97314524 77.3217773,2.83154297 C77.5870781,2.6899407 77.8808578,2.61914062 78.203125,2.61914062 C78.7662789,2.61914062 79.2049138,2.78840977 79.519043,3.12695312 C79.8331721,3.46549648 79.9902344,3.98632461 79.9902344,4.68945312 L79.9902344,8 L79.0283203,8 L79.0283203,4.6796875 C79.0283203,4.2434874 78.934734,3.921225 78.7475586,3.71289062 C78.5603832,3.50455625 78.2812519,3.40039062 77.9101562,3.40039062 C77.6236965,3.40039062 77.3746755,3.45654241 77.1630859,3.56884766 C76.9514963,3.68115291 76.7805996,3.83821514 76.6503906,4.04003906 L76.6503906,8 L75.6884766,8 L75.6884766,0.3828125 L76.6503906,0.3828125 L76.6503906,3.42480469 Z M83.5595703,8.10253906 C82.801103,8.10253906 82.2094748,7.86002847 81.784668,7.375 C81.3598612,6.88997153 81.1474609,6.25195708 81.1474609,5.4609375 L81.1474609,5.24609375 C81.1474609,4.48762642 81.3663715,3.86019128 81.8041992,3.36376953 C82.2420269,2.86734778 82.7766896,2.61914062 83.4082031,2.61914062 C84.1145869,2.61914062 84.6443667,2.83886499 84.9975586,3.27832031 C85.3507505,3.71777563 85.5273438,4.30207969 85.5273438,5.03125 L85.5273438,5.5390625 L82.1484375,5.5390625 L82.1337891,5.56347656 C82.1337891,6.09407817 82.2509754,6.52457517 82.4853516,6.85498047 C82.7197277,7.18538577 83.0777971,7.35058594 83.5595703,7.35058594 C83.8850928,7.35058594 84.1707344,7.30419968 84.4165039,7.21142578 C84.6622734,7.11865188 84.873046,6.99088623 85.0488281,6.828125 L85.4248047,7.453125 C85.2360017,7.63541758 84.9869807,7.78922463 84.6777344,7.91455078 C84.368488,8.03987693 83.9957704,8.10253906 83.5595703,8.10253906 Z M83.4082031,3.37597656 C83.072915,3.37597656 82.7954113,3.5053698 82.5756836,3.76416016 C82.3559559,4.02295051 82.2216799,4.35416465 82.1728516,4.7578125 L82.1826172,4.78222656 L84.5654297,4.78222656 L84.5654297,4.70410156 C84.5654297,4.31998506 84.4710296,4.00260542 84.2822266,3.75195312 C84.0934235,3.50130083 83.8020853,3.37597656 83.4082031,3.37597656 Z" id="Muttersprache" fill="#999999"></path>
            </g>
        </g>
    </g>
</svg>