<?xml version="1.0" encoding="UTF-8"?>
<svg width="127px" height="18px" viewBox="0 0 127 18" version="1.1" xmlns="http://www.w3.org/2000/svg" xmlns:xlink="http://www.w3.org/1999/xlink">
    <!-- Generator: Sketch 52.4 (67378) - http://www.bohemiancoding.com/sketch -->
    <title>a2</title>
    <desc>Created with Sketch.</desc>
    <g id="PuzzleCV-v3" stroke="none" stroke-width="1" fill="none" fill-rule="evenodd">
        <g id="Language-Levels" transform="translate(-554.000000, -392.000000)">
            <g id="a2" transform="translate(554.000000, 392.000000)">
                <rect id="Rectangle" fill="#278CC7" x="0" y="10.8" width="19.1698113" height="7.2"></rect>
                <rect id="Rectangle" fill="#43A8DD" x="21.5660377" y="10.8" width="19.1698113" height="7.2"></rect>
                <rect id="Rectangle" fill="#EBEBEB" x="43.1320755" y="10.8" width="19.1698113" height="7.2"></rect>
                <rect id="Rectangle" fill="#EBEBEB" x="64.6981132" y="10.8" width="19.1698113" height="7.2"></rect>
                <rect id="Rectangle" fill="#EBEBEB" x="86.2641509" y="10.8" width="19.1698113" height="7.2"></rect>
                <rect id="Rectangle" fill="#EBEBEB" x="107.830189" y="10.8" width="19.1698113" height="7.2"></rect>
                <g transform="translate(23.962264, 0.000000)" fill="#999999">
                    <path d="M5.14229253,6.45703125 L1.93640367,6.45703125 L1.17588259,8.65429688 L0,8.65429688 L3.07133513,0.123046875 L4.06001253,0.123046875 L7.06699587,8.65429688 L5.89111328,8.65429688 L5.14229253,6.45703125 Z M2.26986291,5.49023438 L4.81468345,5.49023438 L3.57444907,1.828125 L3.5393481,1.828125 L2.26986291,5.49023438 Z" id="Combined-Shape"></path>
                    <path d="M13.4904739,8.65429688 L8.20192733,8.65429688 L8.20192733,7.86328125 L10.8754514,4.66992188 C11.351267,4.09179398 11.6739977,3.63183765 11.8436533,3.29003906 C12.0133088,2.94824048 12.0981353,2.60351736 12.0981353,2.25585938 C12.0981353,1.86132615 11.9830833,1.5380872 11.7529758,1.28613281 C11.5228682,1.03417843 11.2050126,0.908203125 10.7993993,0.908203125 C10.2962829,0.908203125 9.91310107,1.06249846 9.64984246,1.37109375 C9.38658385,1.67968904 9.25495652,2.06445082 9.25495652,2.52539062 L8.14342571,2.52539062 L8.13172538,2.49023438 C8.11222475,1.7949184 8.34427886,1.2060571 8.82789468,0.723632812 C9.3115105,0.241208525 9.96867214,0 10.7993993,0 C11.5599242,0 12.1585848,0.210935391 12.5953991,0.6328125 C13.0322134,1.05468961 13.2506173,1.59960604 13.2506173,2.26757812 C13.2506173,2.71679912 13.1267901,3.15624785 12.879132,3.5859375 C12.6314739,4.01562715 12.2541422,4.55468426 11.7471256,5.203125 L9.60011608,7.72265625 L9.61181641,7.75195312 L13.4904739,7.75195312 L13.4904739,8.65429688 Z" id="Path"></path>
                </g>
            </g>
        </g>
    </g>
</svg>