<?xml version="1.0" encoding="UTF-8"?>
<svg width="127px" height="18px" viewBox="0 0 127 18" version="1.1" xmlns="http://www.w3.org/2000/svg" xmlns:xlink="http://www.w3.org/1999/xlink">
    <!-- Generator: Sketch 52.4 (67378) - http://www.bohemiancoding.com/sketch -->
    <title>b1</title>
    <desc>Created with Sketch.</desc>
    <g id="PuzzleCV-v3" stroke="none" stroke-width="1" fill="none" fill-rule="evenodd">
        <g id="Language-Levels" transform="translate(-554.000000, -344.000000)">
            <g id="b1" transform="translate(554.000000, 344.000000)">
                <rect id="Rectangle" fill="#278CC7" x="0" y="10.8" width="19.1698113" height="7.2"></rect>
                <rect id="Rectangle" fill="#43A8DD" x="21.5660377" y="10.8" width="19.1698113" height="7.2"></rect>
                <rect id="Rectangle" fill="#8ECBEB" x="43.1320755" y="10.8" width="19.1698113" height="7.2"></rect>
                <rect id="Rectangle" fill="#EBEBEB" x="64.6981132" y="10.8" width="19.1698113" height="7.2"></rect>
                <rect id="Rectangle" fill="#EBEBEB" x="86.2641509" y="10.8" width="19.1698113" height="7.2"></rect>
                <rect id="Rectangle" fill="#EBEBEB" x="107.830189" y="10.8" width="19.1698113" height="7.2"></rect>
                <g transform="translate(47.924528, 0.000000)" fill="#999999">
                    <path d="M0,8.65429688 L0,0.123046875 L2.77882702,0.123046875 C3.66805611,0.123046875 4.36421845,0.315427764 4.86733491,0.700195312 C5.37045137,1.08496286 5.62200582,1.66210553 5.62200582,2.43164062 C5.62200582,2.79882996 5.50890382,3.12792823 5.28269642,3.41894531 C5.05648902,3.70996239 4.7561837,3.93163986 4.38177145,4.08398438 C4.93948969,4.16210977 5.38117252,4.40429484 5.70683317,4.81054688 C6.03249383,5.21679891 6.19532171,5.69530975 6.19532171,6.24609375 C6.19532171,7.02734766 5.94181722,7.62402138 5.43480063,8.03613281 C4.92778405,8.44824425 4.24137189,8.65429688 3.37554356,8.65429688 L0,8.65429688 Z M1.15248194,4.65234375 L1.15248194,7.75195312 L3.37554356,7.75195312 C3.90206078,7.75195312 4.31059302,7.62207161 4.60115253,7.36230469 C4.89171203,7.10253776 5.03698961,6.73437738 5.03698961,6.2578125 C5.03698961,5.78515389 4.88878698,5.40429832 4.59237728,5.11523438 C4.29596759,4.82617043 3.8962105,4.6718751 3.39309404,4.65234375 L1.15248194,4.65234375 Z M1.15248194,3.75 L3.01868367,3.75 C3.4476977,3.75 3.79675389,3.63183712 4.06586269,3.39550781 C4.3349715,3.15917851 4.46952388,2.83008023 4.46952388,2.40820312 C4.46952388,1.94726332 4.32424631,1.60254021 4.0336868,1.37402344 C3.74312729,1.14550667 3.32484488,1.03125 2.77882702,1.03125 L1.15248194,1.03125 L1.15248194,3.75 Z" id="Combined-Shape"></path>
                    <polygon id="Path" points="10.7759987 8.65429688 9.61766657 8.65429688 9.61766657 1.18945312 7.76316517 1.20703125 7.76316517 0.31640625 10.7759987 0"></polygon>
                </g>
            </g>
        </g>
    </g>
</svg>