<?xml version="1.0" encoding="UTF-8"?>
<svg width="127px" height="18px" viewBox="0 0 127 18" version="1.1" xmlns="http://www.w3.org/2000/svg" xmlns:xlink="http://www.w3.org/1999/xlink">
    <!-- Generator: Sketch 52.4 (67378) - http://www.bohemiancoding.com/sketch -->
    <title>c1</title>
    <desc>Created with Sketch.</desc>
    <g id="PuzzleCV-v3" stroke="none" stroke-width="1" fill="none" fill-rule="evenodd">
        <g id="Language-Levels" transform="translate(-554.000000, -248.000000)">
            <g id="c1" transform="translate(554.000000, 248.000000)">
                <rect id="Rectangle" fill="#278CC7" x="0" y="10.8" width="19.1698113" height="7.2"></rect>
                <rect id="Rectangle" fill="#43A8DD" x="21.5660377" y="10.8" width="19.1698113" height="7.2"></rect>
                <rect id="Rectangle" fill="#8ECBEB" x="43.1320755" y="10.8" width="19.1698113" height="7.2"></rect>
                <rect id="Rectangle" fill="#A7D4B0" x="64.6981132" y="10.8" width="19.1698113" height="7.2"></rect>
                <rect id="Rectangle" fill="#6DB77C" x="86.2641509" y="10.8" width="19.1698113" height="7.2"></rect>
                <rect id="Rectangle" fill="#EBEBEB" x="107.830189" y="10.8" width="19.1698113" height="7.2"></rect>
                <g transform="translate(89.858491, 0.000000)" fill="#999999" id="Path">
                    <path d="M6.3825269,5.92382812 L6.39422723,5.95898438 C6.40982774,6.75976963 6.12902276,7.4296848 5.55180388,7.96875 C4.97458499,8.5078152 4.21212148,8.77734375 3.26439048,8.77734375 C2.30105896,8.77734375 1.51617006,8.43555029 0.909700214,7.75195312 C0.303230372,7.06835596 -1.99840144e-14,6.20117713 -1.99840144e-14,5.15039062 L-1.99840144e-14,3.6328125 C-1.99840144e-14,2.582026 0.303230372,1.71387062 0.909700214,1.02832031 C1.51617006,0.34277001 2.30105896,0 3.26439048,0 C4.22772199,0 4.99408557,0.256833369 5.5635042,0.770507812 C6.13292283,1.28418226 6.40982774,1.96483951 6.39422723,2.8125 L6.3825269,2.84765625 L5.27684626,2.84765625 C5.27684626,2.24999701 5.10134315,1.77734549 4.75033166,1.4296875 C4.39932018,1.08202951 3.9040114,0.908203125 3.26439048,0.908203125 C2.62086942,0.908203125 2.10801034,1.16796615 1.72579783,1.6875 C1.34358533,2.20703385 1.15248194,2.85155865 1.15248194,3.62109375 L1.15248194,5.15039062 C1.15248194,5.92773826 1.34358533,6.57616928 1.72579783,7.09570312 C2.10801034,7.61523697 2.62086942,7.875 3.26439048,7.875 C3.9040114,7.875 4.39932018,7.70215017 4.75033166,7.35644531 C5.10134315,7.01074046 5.27684626,6.53320617 5.27684626,5.92382812 L6.3825269,5.92382812 Z"></path>
                    <polygon points="11.0509563 8.65429688 9.89262419 8.65429688 9.89262419 1.18945312 8.03812279 1.20703125 8.03812279 0.31640625 11.0509563 0"></polygon>
                </g>
            </g>
        </g>
    </g>
</svg>