<?xml version="1.0" encoding="UTF-8"?>
<svg width="127px" height="18px" viewBox="0 0 127 18" version="1.1" xmlns="http://www.w3.org/2000/svg" xmlns:xlink="http://www.w3.org/1999/xlink">
    <!-- Generator: Sketch 52.4 (67378) - http://www.bohemiancoding.com/sketch -->
    <title>c2</title>
    <desc>Created with Sketch.</desc>
    <g id="PuzzleCV-v3" stroke="none" stroke-width="1" fill="none" fill-rule="evenodd">
        <g id="Language-Levels" transform="translate(-554.000000, -212.000000)">
            <g id="c2" transform="translate(554.000000, 212.000000)">
                <rect id="Rectangle" fill="#278CC7" x="0" y="10.8" width="19.1698113" height="7.2"></rect>
                <rect id="Rectangle" fill="#43A8DD" x="21.5660377" y="10.8" width="19.1698113" height="7.2"></rect>
                <rect id="Rectangle" fill="#8ECBEB" x="43.1320755" y="10.8" width="19.1698113" height="7.2"></rect>
                <rect id="Rectangle" fill="#A7D4B0" x="64.6981132" y="10.8" width="19.1698113" height="7.2"></rect>
                <rect id="Rectangle" fill="#6DB77C" x="86.2641509" y="10.8" width="19.1698113" height="7.2"></rect>
                <rect id="Rectangle" fill="#65B253" x="107.830189" y="10.8" width="19.1698113" height="7.2"></rect>
                <g transform="translate(111.424528, 0.000000)" fill="#999999" id="Path">
                    <path d="M6.3825269,5.92382812 L6.39422723,5.95898438 C6.40982774,6.75976963 6.12902276,7.4296848 5.55180388,7.96875 C4.97458499,8.5078152 4.21212148,8.77734375 3.26439048,8.77734375 C2.30105896,8.77734375 1.51617006,8.43555029 0.909700214,7.75195312 C0.303230372,7.06835596 -1.99840144e-14,6.20117713 -1.99840144e-14,5.15039062 L-1.99840144e-14,3.6328125 C-1.99840144e-14,2.582026 0.303230372,1.71387062 0.909700214,1.02832031 C1.51617006,0.34277001 2.30105896,0 3.26439048,0 C4.22772199,0 4.99408557,0.256833369 5.5635042,0.770507812 C6.13292283,1.28418226 6.40982774,1.96483951 6.39422723,2.8125 L6.3825269,2.84765625 L5.27684626,2.84765625 C5.27684626,2.24999701 5.10134315,1.77734549 4.75033166,1.4296875 C4.39932018,1.08202951 3.9040114,0.908203125 3.26439048,0.908203125 C2.62086942,0.908203125 2.10801034,1.16796615 1.72579783,1.6875 C1.34358533,2.20703385 1.15248194,2.85155865 1.15248194,3.62109375 L1.15248194,5.15039062 C1.15248194,5.92773826 1.34358533,6.57616928 1.72579783,7.09570312 C2.10801034,7.61523697 2.62086942,7.875 3.26439048,7.875 C3.9040114,7.875 4.39932018,7.70215017 4.75033166,7.35644531 C5.10134315,7.01074046 5.27684626,6.53320617 5.27684626,5.92382812 L6.3825269,5.92382812 Z"></path>
                    <path d="M13.0634121,8.65429688 L7.77486549,8.65429688 L7.77486549,7.86328125 L10.4483896,4.66992188 C10.9242052,4.09179398 11.2469359,3.63183765 11.4165914,3.29003906 C11.586247,2.94824048 11.6710735,2.60351736 11.6710735,2.25585938 C11.6710735,1.86132615 11.5560214,1.5380872 11.3259139,1.28613281 C11.0958064,1.03417843 10.7779508,0.908203125 10.3723375,0.908203125 C9.86922103,0.908203125 9.48603924,1.06249846 9.22278062,1.37109375 C8.95952201,1.67968904 8.82789468,2.06445082 8.82789468,2.52539062 L7.71636387,2.52539062 L7.70466355,2.49023438 C7.68516291,1.7949184 7.91721702,1.2060571 8.40083284,0.723632812 C8.88444866,0.241208525 9.54161031,0 10.3723375,0 C11.1328624,0 11.731523,0.210935391 12.1683373,0.6328125 C12.6051516,1.05468961 12.8235554,1.59960604 12.8235554,2.26757812 C12.8235554,2.71679912 12.6997282,3.15624785 12.4520701,3.5859375 C12.204412,4.01562715 11.8270803,4.55468426 11.3200638,5.203125 L9.17305425,7.72265625 L9.18475457,7.75195312 L13.0634121,7.75195312 L13.0634121,8.65429688 Z"></path>
                </g>
            </g>
        </g>
    </g>
</svg>