<?xml version="1.0" encoding="UTF-8"?>
<svg width="17px" height="13px" viewBox="0 0 17 13" version="1.1" xmlns="http://www.w3.org/2000/svg" xmlns:xlink="http://www.w3.org/1999/xlink">
    <!-- Generator: Sketch 52.4 (67378) - http://www.bohemiancoding.com/sketch -->
    <title>icon_certificate</title>
    <desc>Created with Sketch.</desc>
    <g id="PuzzleCV-v3" stroke="none" stroke-width="1" fill="none" fill-rule="evenodd">
        <g id="Language-Levels" transform="translate(-730.000000, -244.000000)" fill="#3B7BBE">
            <path d="M744.420804,255.77703 C744.366407,256.107146 745.512149,256.647648 745.620944,255.684666 C746.112219,251.347484 745.267362,250.099199 745.267362,250.099199 L744.082521,250.766787 C744.082521,250.766787 745.087171,251.729256 744.420804,255.77703 L744.420804,255.77703 Z M746.583096,248.22147 L739.50805,244.234246 C738.953877,243.921918 738.046123,243.921918 737.49195,244.234246 L730.416904,248.22147 C729.861032,248.533798 729.861032,249.04488 730.416904,249.357207 L737.49195,253.344774 C738.046123,253.656075 738.953877,253.656075 739.50805,253.344774 L744.082521,250.766787 L739.122169,249.597696 C738.930078,249.645418 738.720989,249.672101 738.5,249.672101 C737.605845,249.672101 736.881681,249.238502 736.881681,248.703645 C736.881681,248.168788 737.605845,247.735019 738.5,247.735019 C739.193565,247.735019 739.783436,247.997059 740.012924,248.364121 L745.267362,250.099199 L746.583096,249.357207 C747.138968,249.04488 747.138968,248.533798 746.583096,248.22147 L746.583096,248.22147 Z M732.806985,252.41429 C733.201365,254.022111 733.70284,254.723394 735.375556,255.460597 C737.048273,256.19609 737.843833,257 738.5,257 C739.156167,257 739.90073,256.295296 741.573446,255.559803 C743.247863,254.824311 742.800785,254.600242 743.195165,252.992421 L738.5,255.289552 L732.806985,252.41429 L732.806985,252.41429 Z" id="icon_certificate"></path>
        </g>
    </g>
</svg>